<svg width="152" height="36" fill="none" xmlns="http://www.w3.org/2000/svg"><path d="M19.358 11.4l-4.35-6.815.419-1.207 9.38-2.007c.412-.088.635.102.393.547l-5.118 9.45c-.223.406-.527.342-.724.031z" fill="#FBB900"/><path d="M19.618 7.143V1.466c0-.458-.146-.762-.622-.813L12.633.005c-.483-.05-.61.286-.566.686l.724 6.801c.038.362.21.623.68.604l5.57-.273c.438-.026.577-.223.577-.68z" fill="#B70E80"/><path d="M10.746 31.262a2.369 2.369 0 110 4.738 2.369 2.369 0 010-4.738zm-5.798-.298c3.715-1.143 7.627-2.381 11.343-3.524.508-.172.724-.369.717-1.258l.222-9.253 4.173-2.16c1.073-.558.305-1.847-.654-1.364l-4.16 2.095c-.495.248-.864.826-.89 1.378l-.069 1.41L.846 19.527c-.775.063-.978.774-.769 1.346l3.455 9.373c.146.407.66.953 1.416.718zm13.006-3.163c.68 0 1.239.553 1.239 1.239a1.24 1.24 0 01-1.239 1.238 1.24 1.24 0 01-1.238-1.238c0-.68.559-1.239 1.238-1.239z" fill="#51AE32"/><path d="M7.222 10.33l-1.054 4.51-4.852 2.248c-.375.171-.362.514-.057.686l3.81 2.108-.85 6.345c-.045.317.222.514.558.171L9.77 21.26l5.15.991c.629.12.585-.305.464-.546l-2.407-4.858 3.76-5.926c.247-.393.031-.622-.33-.482l-6.18 2.49-2.432-2.789c-.318-.362-.508-.07-.572.19z" fill="#0069B4"/><path d="M30.313.164l-.82.464-1.142-.203c-.286-.051-.318.031-.267.235l.19.794-.959.844c-.159.14-.114.324.14.311l1.473-.076.762.813c.14.146.267.083.337-.07l.445-1.048 1.619-.495c.254-.076.229-.248.05-.305L30.676.965l.019-.616c.019-.382-.184-.293-.381-.185z" fill="#51AE32"/><path fill-rule="evenodd" clip-rule="evenodd" d="M3.958 19.266l1.111.616-.85 6.344c-.045.318.222.515.558.172L9.77 21.26l5.15.99c.629.121.585-.304.464-.545l-1.613-3.252-9.812.813z" fill="#008237"/><path fill-rule="evenodd" clip-rule="evenodd" d="M19.618 7.144v-4.63l-4.623.972c-.362.05-.375.501-.248.724l2.369 3.709 1.918-.096c.444-.025.584-.222.584-.68z" fill="#702383"/><path fill-rule="evenodd" clip-rule="evenodd" d="M62.06 20.48l1.828-8.275c-1.066-.267-2.775-.533-4.286-.533-2.305 0-4.001.578-5.29 2.038-2.172 2.47-2.82 6.129-3.919 7.958-.495.825-2.99 1.25-3.753.959a27.31 27.31 0 01.381-1.83l.413-1.593c.235-1.035.47-2.16.47-3.131 0-3.665-3.074-4.401-5.557-4.401-1.829 0-3.721.444-5.29 1.092l.533 2.807c1.36-.559 2.718-.914 3.957-.914 1.829 0 2.362.71 2.362 1.771 0 .121-.031.381-.057.591l-1.327.032c-2.572 0-4.877.502-6.325 1.803-.947.858-1.512 2.007-1.512 3.633 0 2.248 1.512 3.817 3.938 3.817 1.714 0 3.308-.978 4.312-2.37.222 1.754 1.683 2.433 3.39 2.389 2.274-.064 6.186-.781 7.425-3.417 1.08-2.299 1.911-4.94 3.181-6.795.477-.699 1.15-1.124 1.982-1.124.12 0 .298 0 .413.032l-1.27 5.67c-.42 1.868-.28 4.268.787 5.97l3.645-1.346c-.959-1.594-.762-3.334-.431-4.833zm-18.69-.292c-.445 1.86-2.128 3.017-3.519 3.017-.857 0-1.39-.381-1.39-1.302 0-.502.177-.947.533-1.302.622-.623 1.803-.947 3.696-.947h.8l-.12.534z" fill="#fff"/><path d="M95.788 20.48l1.829-8.453h-3.753L90.02 16.55c-.47.534-1.27 1.448-1.771 2.216h-.058c-.768-2.273-1.682-4.61-2.686-6.738h-3.073c-.68 3.633-1.474 7.539-2.452 9.31-.514.928-3.093 1.836-4.058 1.486.07-.61.241-1.358.413-2.025l.413-1.594c.235-1.035.47-2.16.47-3.131 0-3.665-3.074-4.401-5.557-4.401-1.83 0-3.722.444-5.29 1.092l.533 2.807c1.36-.559 2.718-.914 3.957-.914 1.829 0 2.362.71 2.362 1.771 0 .121-.032.381-.057.591l-1.327.032c-2.572 0-4.878.502-6.326 1.803-.946.858-1.511 2.007-1.511 3.633 0 2.248 1.511 3.817 3.937 3.817 1.715 0 3.309-.978 4.312-2.37.426 3.132 6.39 2.763 8.796 1.182 1.702-1.124 2.312-2.566 2.928-4.534.235-.743.457-1.537.641-2.47h.057c.68 1.625 1.36 3.575 1.83 5.023h1.65l2.54-2.985c.445-.534 1.214-1.416 1.626-1.95h.09c-.693 2.572-1.728 5.78-.096 8.421l3.81-1.416c-.628-1.353-.787-2.642-.336-4.725zm-23.117-.292c-.444 1.86-2.127 3.017-3.518 3.017-.857 0-1.39-.381-1.39-1.302 0-.502.177-.947.533-1.302.622-.623 1.803-.947 3.69-.947h.8l-.115.534zm51.498-8.403c-2.103-.45-3.919.146-5.602 2.49a4.81 4.81 0 00-.724-2.839l-3.334 1.283c.356.781.572 1.823.381 2.712l-1.53 7.074c-.851.49-3.493.743-3.823.356.152-1.029.565-2.496.863-3.645.235-1.036.47-2.16.47-3.131 0-3.665-3.073-4.401-5.557-4.401-1.829 0-3.721.444-5.29 1.092l.534 2.807c1.359-.559 2.718-.914 3.956-.914 1.829 0 2.363.71 2.363 1.771 0 .121-.032.381-.057.591l-1.328.032c-2.572 0-4.877.502-6.325 1.803-.946.858-1.511 2.007-1.511 3.633 0 2.248 1.511 3.817 3.937 3.817 1.715 0 3.309-.978 4.312-2.37-.051.852 2.915 3.348 6.732 1.874l-1.556 7.202h3.963l1.568-7.183c.915.33 1.829.477 2.807.477 4.579 0 7.85-3.468 8.034-8.542.108-2.674-.781-5.455-3.283-5.989zm-17.839 8.402c-.445 1.861-2.128 3.017-3.519 3.017-.857 0-1.391-.381-1.391-1.302 0-.502.178-.946.534-1.302.622-.622 1.804-.946 3.69-.946h.8l-.114.533zm17.14-2.038c-.114 2.629-1.683 4.902-4.369 4.902-.502 0-1.15-.088-1.772-.355l.546-3.061c.794-4.37 5.824-6.656 5.595-1.486zm4.516 7.856h3.962l1.182-5.259c.381-1.829.978-3.042 1.625-3.9 1.035-1.326 2.096-1.714 2.75-1.714.68 0 1.035.381 1.035 1.124 0 .299-.057.858-.209 1.448l-1.829 8.3h3.956l1.181-5.258c.413-1.86 1.004-3.073 1.658-3.93 1.035-1.303 2.096-1.684 2.75-1.684.654 0 1.003.381 1.003 1.15 0 .266-.076.825-.209 1.416l-1.194 5.41c-.381 1.715-.077 3.043.387 3.887l3.753-1.378c-.374-.781-.362-1.676-.127-2.75l1.086-5.023c.216-1.01.483-2.216.47-3.13-.019-2.008-1.327-3.043-3.309-3.043-2.216 0-4.223 1.569-5.379 3.1h-.057c-.031-2.04-1.149-3.1-3.131-3.1-2.159 0-4.108 1.505-5.226 3.042h-.057c.184-1.181-.038-2.477-.407-3.277l-3.512 1.29c.324.54.35 1.949.204 2.622l-2.356 10.656zM33.177 5.848c-1.36 0-5.271-.019-6.224 4.11L23.397 26.01h4.617l3.124-14.39c.235-1.003.591-1.988 2.242-1.918h6.51l.736-3.855h-7.45z" fill="#fff"/></svg>