<svg width="727" height="332" fill="none" xmlns="http://www.w3.org/2000/svg"><path opacity=".3" d="M0 131h185v5H0v-5zm211 0h248v5H211v-5zm24 94h63v5h-63v-5zm90 0h248l-2 5H325v-5z" fill="#fff"/><path d="M53.452 102.586c-2.002 5.809-5.223 10.422-9.665 13.839-4.589 3.563-9.885 5.345-15.89 5.345-7.761 0-14.351-2.661-19.77-7.981C2.71 108.468 0 101.927 0 94.165c0-7.615 2.66-14.034 7.981-19.257C13.351 69.636 19.843 67 27.458 67c6.297 0 11.74 1.733 16.329 5.199 4.637 3.417 7.834 8.152 9.592 14.205H40.565c-2.929-5.76-7.298-8.64-13.107-8.64-4.49 0-8.176 1.586-11.056 4.759-2.88 3.173-4.32 7.03-4.32 11.569 0 4.491 1.464 8.421 4.393 11.789 2.929 3.368 6.614 5.052 11.056 5.052 5.907 0 10.251-2.782 13.034-8.347h12.887zm24.101-21.088c5.907 0 10.813 1.88 14.718 5.638 3.905 3.759 5.858 8.567 5.858 14.425 0 5.857-1.953 10.69-5.858 14.498-3.905 3.807-8.811 5.711-14.718 5.711-5.809 0-10.69-1.904-14.644-5.711-3.905-3.857-5.858-8.689-5.858-14.498 0-5.81 1.953-10.593 5.858-14.352 3.954-3.807 8.835-5.711 14.644-5.711zm9.958 20.209c0-3.026-.927-5.54-2.782-7.542-1.806-2.001-4.198-3.002-7.176-3.002-2.929 0-5.32 1.025-7.175 3.076-1.807 2-2.71 4.49-2.71 7.468 0 2.929.928 5.394 2.783 7.395 1.855 2.002 4.222 3.003 7.102 3.003 2.93 0 5.321-.977 7.176-2.929 1.855-2.002 2.782-4.491 2.782-7.469zm55.659.366c0 6.004-1.879 10.788-5.638 14.352-3.759 3.563-8.664 5.345-14.717 5.345-6.102 0-10.886-1.733-14.352-5.199-3.417-3.515-5.125-8.347-5.125-14.498V91.969c0-16.548 8.371-24.823 25.115-24.823h12.594v8.348h-15.596c-3.32 0-6.078.927-8.274 2.782-2.148 1.806-3.466 4.345-3.954 7.615-.293.195-.44.513-.44.952 0 .147.025.39.073.732.049.293.074.513.074.66 2.88-3.71 7.078-5.566 12.594-5.566 5.662 0 10.056 1.855 13.18 5.565 2.977 3.466 4.466 8.08 4.466 13.839zm-20.355 9.958c2.928 0 5.272-.903 7.029-2.709 1.806-1.855 2.709-4.247 2.709-7.176 0-2.88-.879-5.247-2.636-7.102-1.757-1.904-4.076-2.856-6.956-2.856-2.782 0-5.003.952-6.663 2.856-1.66 1.904-2.49 4.271-2.49 7.102 0 2.978.757 5.37 2.27 7.176 1.562 1.806 3.808 2.709 6.737 2.709zm61.823 8.714h-10.91V98.046l-15.011 22.699h-9.665V82.669h10.91v21.894l15.011-21.894h9.665v38.076zm48.89-18.818c0 5.321-1.684 9.933-5.052 13.839-3.515 4.1-7.908 6.15-13.18 6.15-4.686 0-8.591-1.659-11.715-4.979V152H192.67V82.67h10.398v4.54c2.929-3.808 6.932-5.712 12.008-5.712 5.663 0 10.203 2.026 13.62 6.077 3.221 3.808 4.832 8.592 4.832 14.352zm-30.167-.293c0 3.026.903 5.565 2.709 7.615 1.855 2.05 4.271 3.075 7.249 3.075 2.782 0 5.126-1.049 7.029-3.148 1.904-2.148 2.856-4.638 2.856-7.469 0-2.929-.928-5.418-2.782-7.468-1.855-2.05-4.247-3.076-7.176-3.076-2.929 0-5.321 1-7.176 3.002-1.806 2.002-2.709 4.491-2.709 7.469zm75.678 19.111h-10.836v-4.32c-1.172 1.708-2.807 3.051-4.906 4.027-2.099.927-4.247 1.391-6.444 1.391-5.565 0-10.129-2.001-13.692-6.004-3.417-3.808-5.126-8.543-5.126-14.205 0-5.663 1.733-10.422 5.199-14.278 3.515-3.905 8.079-5.858 13.693-5.858 5.076 0 8.811 1.684 11.202 5.052v-3.88h10.91v38.075zm-10.617-18.891c0-3.027-.952-5.565-2.855-7.615-1.904-2.1-4.369-3.15-7.396-3.15-2.831 0-5.174 1.05-7.029 3.15-1.806 2.05-2.709 4.515-2.709 7.395 0 2.831.952 5.321 2.855 7.468 1.904 2.148 4.247 3.222 7.03 3.222 2.782 0 5.15-1.025 7.102-3.075 2.002-2.099 3.002-4.564 3.002-7.395zm36.716-20.429c4.54 0 8.47 1.22 11.789 3.66 3.32 2.442 5.663 5.81 7.029 10.105.782 2.392 1.172 5.175 1.172 8.348 0 .341-.049.805-.146 1.391h-29.436c.928 5.418 4.223 8.127 9.885 8.127 4.003 0 6.615-1.415 7.835-4.246h11.057c-1.611 4.002-4.101 7.2-7.469 9.592-3.368 2.343-7.2 3.514-11.496 3.514-5.906 0-10.739-1.879-14.498-5.638-3.71-3.807-5.565-8.664-5.565-14.571 0-5.516 1.929-10.275 5.785-14.278s8.542-6.004 14.058-6.004zm9.593 16.182c-1.221-4.882-4.369-7.323-9.446-7.323-5.028 0-8.201 2.441-9.519 7.323h18.965zm61.842 23.138h-10.398l.293-23.504-9.006 23.504h-7.03l-8.933-23.504.293 23.504h-10.47V82.669h14.131l8.494 24.603 8.494-24.603h14.132v38.076zm46.164-14.132c-1.27 4.686-3.661 8.42-7.176 11.203-3.466 2.733-7.615 4.1-12.448 4.1-5.76 0-10.593-1.928-14.498-5.784-3.856-3.905-5.784-8.714-5.784-14.425 0-5.858 1.879-10.69 5.638-14.498 3.807-3.807 8.616-5.711 14.425-5.711 5.027 0 9.299 1.342 12.813 4.027 3.515 2.636 5.809 6.395 6.883 11.276h-10.544c-1.074-2.099-2.318-3.563-3.734-4.393-1.367-.879-3.246-1.318-5.638-1.318-2.831 0-5.101 1.05-6.81 3.148-1.708 2.05-2.563 4.54-2.563 7.469 0 2.978.904 5.492 2.71 7.542 1.806 2.001 4.173 3.002 7.102 3.002 4.491 0 7.469-1.879 8.933-5.638h10.691zm36.507 14.132h-10.837v-15.816l-10.763 15.816h-12.228l10.91-15.084c-2.88-.683-5.15-2.001-6.81-3.954-1.611-1.953-2.416-4.393-2.416-7.322 0-7.81 5.174-11.716 15.523-11.716h16.621v38.076zm-10.837-21.6V90.65h-5.272c-3.075 0-4.613 1.342-4.613 4.027 0 1.415.537 2.538 1.611 3.368.928.732 2.148 1.098 3.661 1.098h4.613zM227.113 231H216.18v-31.772h-12.547v15.483H192.7v-53.155h10.933v29.528h12.547v-14.528h10.933V231zm47.408-16.289h-10.86v-4.329c-1.174 1.712-2.812 3.057-4.916 4.035-2.103.93-4.256 1.394-6.457 1.394-5.576 0-10.15-2.005-13.721-6.016-3.424-3.816-5.136-8.561-5.136-14.235 0-5.675 1.736-10.444 5.209-14.308 3.522-3.914 8.096-5.87 13.721-5.87 5.088 0 8.83 1.687 11.227 5.062v-3.888h10.933v38.155zm-10.64-18.931c0-3.033-.953-5.577-2.861-7.631-1.908-2.104-4.378-3.155-7.411-3.155-2.837 0-5.185 1.051-7.044 3.155-1.81 2.054-2.715 4.525-2.715 7.411 0 2.837.954 5.332 2.862 7.484 1.907 2.152 4.255 3.229 7.044 3.229 2.788 0 5.16-1.028 7.117-3.082 2.006-2.104 3.008-4.574 3.008-7.411zm83.336.073c0 5.332-1.687 9.955-5.063 13.868-3.522 4.109-7.924 6.164-13.207 6.164-4.696 0-8.609-1.664-11.74-4.99V231h-10.933v-54.444h10.419v4.549c2.935-3.816 6.946-5.723 12.034-5.723 5.674 0 10.223 2.03 13.648 6.09 3.228 3.815 4.842 8.609 4.842 14.381zm-30.23-.293c0 3.033.905 5.576 2.715 7.631 1.858 2.054 4.28 3.082 7.264 3.082 2.788 0 5.136-1.052 7.044-3.156 1.908-2.152 2.861-4.647 2.861-7.484 0-2.935-.929-5.43-2.788-7.484-1.859-2.055-4.256-3.082-7.191-3.082-2.935 0-5.332 1.003-7.19 3.008-1.81 2.006-2.715 4.501-2.715 7.485zm82.001 19.151h-11.007v-38.155h11.007v38.155zm-45.493-38.155h10.933v14.161c5.038 0 8.438.196 10.199.587 6.457 1.467 9.686 5.356 9.686 11.667 0 7.826-5.161 11.74-15.483 11.74h-15.335v-38.155zm19.591 26.415c0-2.789-1.736-4.183-5.21-4.183h-3.448v7.851h4.035c3.082 0 4.623-1.223 4.623-3.668zm72.97-6.971c0 6.017-1.884 10.811-5.65 14.382-3.767 3.57-8.683 5.356-14.749 5.356-6.114 0-10.908-1.737-14.381-5.21-3.425-3.522-5.137-8.365-5.137-14.528v-10.126c0-16.583 8.39-24.874 25.168-24.874h12.621v8.365h-15.629c-3.327 0-6.09.929-8.292 2.788-2.152 1.81-3.473 4.354-3.962 7.631-.293.196-.44.514-.44.954 0 .147.024.391.073.734.049.293.074.513.074.66 2.886-3.718 7.092-5.576 12.62-5.576 5.674 0 10.077 1.858 13.208 5.576 2.984 3.473 4.476 8.096 4.476 13.868zm-20.399 9.979c2.935 0 5.283-.905 7.044-2.715 1.81-1.859 2.715-4.256 2.715-7.191 0-2.886-.88-5.258-2.641-7.117-1.761-1.908-4.085-2.862-6.971-2.862-2.788 0-5.014.954-6.677 2.862-1.663 1.908-2.495 4.28-2.495 7.117 0 2.984.758 5.381 2.275 7.191 1.565 1.81 3.815 2.715 6.75 2.715zm65.622 8.732h-10.86v-4.329c-1.174 1.712-2.812 3.057-4.916 4.035-2.103.93-4.256 1.394-6.457 1.394-5.576 0-10.15-2.005-13.721-6.016-3.424-3.816-5.136-8.561-5.136-14.235 0-5.675 1.736-10.444 5.209-14.308 3.522-3.914 8.096-5.87 13.721-5.87 5.088 0 8.83 1.687 11.227 5.062v-3.888h10.933v38.155zm-10.64-18.931c0-3.033-.954-5.577-2.861-7.631-1.908-2.104-4.378-3.155-7.411-3.155-2.837 0-5.185 1.051-7.044 3.155-1.81 2.054-2.715 4.525-2.715 7.411 0 2.837.954 5.332 2.862 7.484 1.907 2.152 4.255 3.229 7.044 3.229 2.788 0 5.16-1.028 7.117-3.082 2.006-2.104 3.008-4.574 3.008-7.411zm52.643 18.931h-10.787l-7.851-25.021-7.924 25.021h-10.64l13.208-38.155h10.713l13.281 38.155zm39.729 0h-12.62l-11.52-18.418v18.418h-10.713v-38.155h10.713v17.536l11.887-17.536h11.886l-13.354 18.637 13.721 19.518zm38.759-38.155L591.225 231h-10.859l7.117-18.05-14.455-36.394h11.08l8.585 23.773 8.144-23.773h10.933zM182.528 294.525c-1.3 4.8-3.75 8.625-7.35 11.475-3.55 2.8-7.8 4.2-12.75 4.2-5.9 0-10.85-1.975-14.85-5.925-3.95-4-5.925-8.925-5.925-14.775 0-6 1.925-10.95 5.775-14.85 3.9-3.9 8.825-5.85 14.775-5.85 5.15 0 9.525 1.375 13.125 4.125 3.6 2.7 5.95 6.55 7.05 11.55h-10.8c-1.1-2.15-2.375-3.65-3.825-4.5-1.4-.9-3.325-1.35-5.775-1.35-2.9 0-5.225 1.075-6.975 3.225-1.75 2.1-2.625 4.65-2.625 7.65 0 3.05.925 5.625 2.775 7.725 1.85 2.05 4.275 3.075 7.275 3.075 4.6 0 7.65-1.925 9.15-5.775h10.95z" fill="#fff"/><g clip-path="url(#clip0_2_16)"><path d="M256.792 272.547l-10.513-16.467 1.013-2.916 22.667-4.849c.998-.215 1.535.245.952 1.32l-12.37 22.835c-.537.983-1.273.829-1.749.077z" fill="#FBB900"/><path d="M257.421 262.265v-13.72c0-1.105-.353-1.842-1.504-1.964l-15.377-1.566c-1.167-.122-1.473.691-1.366 1.658l1.749 16.436c.093.875.507 1.504 1.643 1.458l13.459-.66c1.058-.061 1.396-.537 1.396-1.642z" fill="#B70E80"/><path d="M235.982 320.551a5.725 5.725 0 11-.001 11.45 5.725 5.725 0 01.001-11.45zm-14.012-.721c8.978-2.762 18.432-5.755 27.409-8.517 1.228-.415 1.75-.89 1.735-3.039l.537-22.36 10.083-5.218c2.593-1.35.736-4.466-1.581-3.299l-10.052 5.064c-1.197.599-2.087 1.995-2.149 3.33l-.169 3.407-35.727 2.993c-1.872.153-2.363 1.872-1.856 3.253l8.348 22.652c.353.982 1.596 2.302 3.422 1.734zm31.43-7.643a2.997 2.997 0 012.993 2.993 2.997 2.997 0 01-2.993 2.993 2.996 2.996 0 01-2.992-2.993 3.006 3.006 0 012.992-2.993z" fill="#51AE32"/><path d="M227.464 269.969l-2.547 10.896-11.725 5.433c-.905.414-.875 1.243-.138 1.657l9.208 5.095-2.056 15.331c-.108.768.537 1.244 1.35.415l12.062-12.416 12.447 2.394c1.519.292 1.411-.736 1.12-1.319l-5.816-11.74 9.085-14.319c.598-.951.076-1.504-.798-1.166l-14.933 6.016-5.877-6.737c-.768-.875-1.228-.169-1.382.46z" fill="#0069B4"/><path d="M283.265 245.399l-1.98 1.12-2.762-.491c-.691-.123-.768.077-.645.568l.46 1.918-2.317 2.041c-.384.338-.276.783.338.752l3.56-.184 1.842 1.965c.337.353.644.199.813-.169l1.074-2.532 3.914-1.197c.614-.185.552-.599.123-.737l-3.545-1.12.046-1.489c.046-.921-.445-.706-.921-.445z" fill="#51AE32"/><path fill-rule="evenodd" clip-rule="evenodd" d="M219.576 291.562l2.686 1.488-2.056 15.332c-.108.767.537 1.243 1.35.414l12.062-12.416 12.447 2.395c1.519.291 1.411-.737 1.12-1.32l-3.898-7.858-23.711 1.965z" fill="#008237"/><path fill-rule="evenodd" clip-rule="evenodd" d="M257.421 262.265v-11.188c-3.729.783-7.443 1.566-11.172 2.348-.875.123-.906 1.213-.599 1.75l5.725 8.962 4.634-.23c1.074-.061 1.412-.537 1.412-1.642z" fill="#702383"/><path fill-rule="evenodd" clip-rule="evenodd" d="M359.983 294.493l4.419-19.997c-2.578-.644-6.706-1.289-10.359-1.289-5.57 0-9.668 1.397-12.783 4.926-5.249 5.97-6.814 14.81-9.469 19.23-1.197 1.995-7.228 3.023-9.07 2.317-.015.061.445-2.578.921-4.42l.997-3.852c.568-2.501 1.136-5.218 1.136-7.566 0-8.855-7.428-10.635-13.428-10.635-4.42 0-8.993 1.074-12.784 2.64l1.289 6.783c3.284-1.351 6.568-2.21 9.561-2.21 4.42 0 5.709 1.719 5.709 4.282 0 .291-.077.921-.138 1.427l-3.208.077c-6.215 0-11.786 1.212-15.285 4.358-2.287 2.072-3.652 4.85-3.652 8.778 0 5.433 3.652 9.224 9.515 9.224 4.143 0 7.995-2.364 10.42-5.725.537 4.236 4.067 5.878 8.195 5.771 5.494-.154 14.948-1.888 17.94-8.257 2.609-5.555 4.619-11.939 7.689-16.421 1.151-1.688 2.778-2.716 4.788-2.716.292 0 .721 0 .997.077l-3.069 13.704c-1.013 4.512-.675 10.313 1.903 14.426l8.809-3.253c-2.317-3.852-1.841-8.057-1.043-11.679zm-45.166-.706c-1.074 4.496-5.141 7.29-8.502 7.29-2.071 0-3.36-.921-3.36-3.147 0-1.212.429-2.286 1.289-3.146 1.504-1.504 4.358-2.286 8.931-2.286h1.934l-.292 1.289z" fill="#fff"/><path d="M441.489 294.493l4.419-20.426h-9.069l-9.285 10.926c-1.136 1.289-3.07 3.499-4.282 5.356h-.138c-1.857-5.494-4.067-11.141-6.492-16.282h-7.427c-1.642 8.778-3.561 18.216-5.924 22.498-1.243 2.24-7.474 4.435-9.807 3.591.169-1.474.583-3.284.998-4.896l.997-3.852c.568-2.501 1.136-5.218 1.136-7.566 0-8.855-7.428-10.635-13.428-10.635-4.42 0-8.993 1.074-12.784 2.64l1.289 6.783c3.284-1.351 6.568-2.21 9.561-2.21 4.42 0 5.709 1.719 5.709 4.282 0 .291-.077.921-.138 1.427l-3.208.077c-6.215 0-11.786 1.212-15.285 4.358-2.286 2.072-3.652 4.85-3.652 8.778 0 5.433 3.652 9.224 9.515 9.224 4.143 0 7.995-2.364 10.42-5.725 1.028 7.566 15.439 6.676 21.255 2.855 4.113-2.716 5.586-6.2 7.075-10.958a53.87 53.87 0 001.55-5.969h.138c1.642 3.928 3.284 8.64 4.42 12.139h3.99l6.139-7.213c1.074-1.289 2.931-3.422 3.928-4.712h.215c-1.673 6.216-4.174 13.966-.23 20.35l9.208-3.422c-1.519-3.269-1.903-6.384-.813-11.418zm-55.862-.706c-1.074 4.496-5.141 7.29-8.502 7.29-2.072 0-3.361-.921-3.361-3.146 0-1.213.43-2.287 1.289-3.147 1.504-1.504 4.358-2.286 8.916-2.286h1.934l-.276 1.289zm124.446-20.304c-5.08-1.089-9.469.353-13.536 6.016.199-2.778-.768-5.34-1.75-6.86l-8.057 3.1c.86 1.888 1.381 4.405.921 6.553l-3.698 17.096c-2.057 1.182-8.441 1.796-9.239.86.368-2.486 1.366-6.031 2.087-8.809.568-2.502 1.136-5.218 1.136-7.566 0-8.855-7.428-10.635-13.429-10.635-4.42 0-8.993 1.074-12.783 2.639l1.289 6.784c3.284-1.351 6.568-2.21 9.561-2.21 4.419 0 5.709 1.718 5.709 4.281 0 .292-.077.921-.139 1.428l-3.207.076c-6.215 0-11.786 1.213-15.285 4.359-2.287 2.072-3.653 4.849-3.653 8.778 0 5.433 3.653 9.223 9.515 9.223 4.144 0 7.996-2.363 10.421-5.724-.123 2.057 7.044 8.088 16.267 4.527l-3.76 17.403h9.576l3.791-17.357c2.21.798 4.42 1.151 6.783 1.151 11.065 0 18.969-8.379 19.414-20.641.261-6.461-1.888-13.183-7.934-14.472zm-43.109 20.304c-1.074 4.496-5.141 7.29-8.502 7.29-2.072 0-3.361-.921-3.361-3.147 0-1.212.43-2.286 1.289-3.146 1.504-1.504 4.358-2.286 8.916-2.286h1.934l-.276 1.289zm41.42-4.926c-.276 6.353-4.066 11.847-10.558 11.847-1.212 0-2.778-.215-4.282-.859l1.32-7.397c1.918-10.559 14.073-16.084 13.52-3.591zm10.912 18.983h9.576l2.855-12.707c.92-4.419 2.363-7.351 3.928-9.422 2.502-3.208 5.065-4.144 6.645-4.144 1.643 0 2.502.921 2.502 2.716 0 .722-.138 2.072-.507 3.499l-4.419 20.058h9.561l2.854-12.707c.998-4.496 2.425-7.427 4.006-9.499 2.501-3.146 5.064-4.067 6.645-4.067 1.58 0 2.424.921 2.424 2.778 0 .644-.184 1.995-.506 3.422l-2.885 13.075c-.921 4.144-.184 7.351.936 9.392l9.07-3.33c-.906-1.887-.875-4.051-.307-6.645l2.624-12.139c.522-2.44 1.166-5.356 1.136-7.566-.046-4.849-3.208-7.351-7.996-7.351-5.356 0-10.205 3.791-12.998 7.489h-.139c-.076-4.926-2.777-7.489-7.565-7.489-5.218 0-9.93 3.637-12.631 7.351h-.138c.445-2.854-.092-5.985-.982-7.919l-8.487 3.116c.783 1.304.844 4.711.491 6.338l-5.693 25.751zm-229.11-48.71c-3.284 0-12.738-.046-15.04 9.929l-8.594 38.797h11.157l7.551-34.776c.568-2.424 1.427-4.803 5.417-4.634h15.73l1.781-9.316h-18.002z" fill="#fff"/></g><path d="M724.9 190.7l-1.7-2c.2-1.7.5-3.5.7-5.3l.6-5.4c.1-2 .4-5.2.5-7.2l.1-3.6.1-2.8c0-1.2-.1-2.4 0-3.6 0-1.2-.1-3.6-.1-4.9-.4-7.4-1-14.9-2.4-22.4-.6-3.8-1.5-7.5-2.3-11.3-.5-1.9-1-3.7-1.5-5.6l-.8-2.8c-.4-1.4-.9-2.7-1.3-4.1-.5-1.4-1.2-3.6-1.7-4.9l-2.7-6.9c-.1-.2-.2-.4-.3-.7l-1.2-2.7c-.8-1.8-1.6-3.6-2.5-5.4-1.8-3.5-3.6-7.1-5.7-10.4-1.6-2.8-3.4-5.4-5.2-8.1-1.2-1.8-2.4-3.5-3.7-5.2l-1.7-2.2c-1-1.3-2.1-2.6-3.2-3.9l-3.9-4.5c-1.4-1.5-2.7-2.8-4.1-4.2C675.2 45 669.3 40 663 35.3c-12.5-9.3-25.9-16.7-39.6-22.5-6.8-2.8-13.7-5.2-20.5-7.1-6.9-1.8-13.7-3.3-20.4-4.2-13.4-1.9-26.3-1.8-38-.3s-22.2 4.5-31 8.1c-1.1.4-2.2.9-3.3 1.3-1.1.5-2.1.9-3.1 1.4-1 .5-2 .9-3 1.4-1 .5-1.9 1-2.8 1.5-1.8 1-3.6 1.8-5.2 2.8-1.6 1-3.2 1.9-4.6 2.8-.7.4-1.4.9-2.1 1.3-.7.4-1.3.9-2 1.3-1.3.9-2.4 1.7-3.5 2.4-2 1.3-3.5 2.5-4.9 3.6 0 0-.1 0-.1.1l-.1.1c-.1.1-.2.2-.3.2-.3.2-.5.4-.8.6-.2-.1-.4-.1-.5 0-.1.2-.1.4 0 .5.2.1.4.1.5 0 .1-.1.1-.3 0-.4.3-.2.5-.4.8-.6.1 0 .1-.1.2-.1-.1.6.3 1.7 1.1 2.7 1 1.3 2.2 2 2.7 1.7.5-.4.1-1.8-.9-3.1-.8-1.1-1.8-1.7-2.4-1.7 1.3-1 2.9-2.2 4.8-3.4 1.1-.7 2.3-1.5 3.6-2.4.6-.4 1.3-.9 2-1.3s1.4-.8 2.2-1.2c1.5-.9 3-1.8 4.7-2.7 1.6-.9 3.4-1.7 5.3-2.7.9-.5 1.9-.9 2.8-1.4 1-.5 2-.9 3-1.3s2.1-.9 3.1-1.3c1.1-.5 2.1-.9 3.3-1.3 4-1.5 8.4-2.9 13.1-4.1-.4.8-.5 2.2-.1 3.9.5 2.2 1.6 3.9 2.4 3.7.9-.2 1.2-2.2.7-4.4-.4-1.7-1-3-1.7-3.5 5.2-1.3 10.7-2.3 16.6-3 11.6-1.3 24.3-1.2 37.5.9 3.8.6 7.6 1.4 11.4 2.3-.9.6-1.8 2.3-2.3 4.5-.7 2.8-.3 5.4.8 5.6 1.1.3 2.5-1.8 3.2-4.7.5-2.1.4-4.1-.1-5 2.3.6 4.7 1.2 7.1 1.9 6.7 2 13.4 4.5 20.1 7.4 12.4 5.5 24.7 12.5 36.1 21-1.5.3-3.6 1.8-5.4 4.1-2.5 3.1-3.5 6.4-2.3 7.4 1.2 1 4.2-.8 6.6-3.9 1.6-2 2.6-4.1 2.8-5.6l.6-.2c6.1 4.7 11.9 9.8 17.3 15.2 1.3 1.4 2.7 2.9 4 4.2l3.7 4.4c1.1 1.3 2.1 2.6 3.1 3.9l1.6 2.2c1.2 1.7 2.4 3.3 3.5 5.1 1.7 2.6 3.4 5.2 4.8 7.9 2 3.3 3.6 6.8 5.3 10.2.8 1.7 1.5 3.5 2.3 5.3l1.1 2.6c.5 1.1.8 2.3 1.3 3.4.5 1.4 1.1 2.8 1.6 4.3.1.3.2.5.2.8-1.3-1-4.8-.8-8.4.5-4.3 1.6-7.3 4.3-6.7 5.9.6 1.7 4.6 1.7 8.9.1 3.5-1.3 6.2-3.3 6.7-4.9.4 1.1.7 2.3 1.1 3.4.3.9.6 1.8.8 2.7l.7 2.7c.5 1.8 1 3.6 1.4 5.5.7 3.7 1.6 7.3 2.1 11 1.2 7.1 1.7 14.2 1.9 21.1v8.8l-.1 2.6c-.1 1.7-.2 3.5-.3 5.2-.2 1.8-.4 3.5-.5 5.3l-.3 2.6v.6l-.1.6-.2 1.3c-.3 1.7-.5 3.4-.8 5l-1.9 1.4 6.8 2.1-7.3-1.1s-4.1 5.9-4.3 6.5c-.2 1 2.4 2.1 2.1 3.1-.8 3.5-1.4 5.2-2.3 7.9-.5 1.4-2.3 6.5-2.5 7.2-2.1 5.6-4.5 11.1-7.2 16.4-4.6 9.2-10.2 17.9-16.5 26.1-2 2.7-4.2 5.2-6.2 7.6 0 0-14 10.4-17.2 12.5-.6.4-1.5 3.3-1.1 3.9l2.9 5.2-3.1-3.5-5.1 5.9c-.5.5-.5 1.3 0 1.9l3.9 5c.5.6 1.3.8 1.9.4l7.2-3.9 2.3.4c.6.1 3.9-.1 4.3-.6l-11.9-13.1 12.6 12.2c3.2-4.4 11.7-17.5 11.7-17.5 2.4-2.8 4.9-5.8 7.3-9.1 6.6-8.9 12.4-18.4 17.2-28.3 5.7-11.7 9.3-21 12.1-33.7.3-1.1 3.1-1.1 3.3-2.2-.3-.8-1.2-9.9-1.2-9.9zM481 30.9c.7.9 1 1.9.7 2.2-.4.3-1.3-.3-2-1.2-.7-.9-1-1.9-.7-2.2.4-.2 1.3.3 2 1.2zm48.1-21.7c.3 1.6.1 3.1-.5 3.2-.6.1-1.4-1.1-1.8-2.7-.3-1.6-.1-3.1.5-3.2.7-.2 1.5 1 1.8 2.7zm65.2 1.8c-.5 2.1-1.5 3.6-2.3 3.4-.8-.2-1.1-2-.6-4.1.5-2.1 1.5-3.6 2.3-3.4.9.2 1.1 2 .6 4.1zm62 32.2c-1.8 2.3-4 3.6-4.8 2.9-.9-.7-.1-3.1 1.7-5.4 1.8-2.3 4-3.6 4.8-2.9.9.8.1 3.2-1.7 5.4zm47.5 69.6c-3.1 1.2-6.1 1.1-6.5-.1-.5-1.2 1.7-3.1 4.9-4.3 3.1-1.2 6.1-1.1 6.5.1.4 1.2-1.7 3.2-4.9 4.3z" fill="#fff"/><path opacity=".5" d="M647.2 37.1c-8.7-7-18.1-13.1-28-18-4.9-2.5-10-4.5-15-6.4-5.1-1.8-10.2-3.3-15.3-4.4-10.2-2.3-20.4-3.1-30-3-9.6.2-18.6 1.5-26.7 3.4-8.2 1.8-15.4 4.3-21.7 6.9-3.2 1.2-6 2.6-8.7 3.8l-7.2 3.6c-4.3 2.3-7.6 4.2-9.8 5.6-2.2 1.4-3.4 2.1-3.4 2.1s1.2-.7 3.4-2c2.2-1.4 5.6-3.1 9.9-5.4 2.2-1 4.6-2.2 7.3-3.4 2.7-1.1 5.6-2.4 8.7-3.6 6.3-2.4 13.6-4.7 21.7-6.4 8.1-1.7 17-2.9 26.5-3 9.5 0 19.5.9 29.5 3.2 5 1.1 10.1 2.6 15.1 4.4 5 1.9 10 3.9 14.8 6.4 9.7 4.9 19 10.9 27.5 17.9 8.6 6.9 16.4 14.8 23.3 23.2 6.9 8.4 12.9 17.3 17.8 26.4 5 9.1 8.9 18.3 11.8 27.3 1.5 4.5 2.6 9 3.6 13.3.9 4.4 1.6 8.6 2 12.7.9 8.2.7 15.9 0 22.5-.8 6.7-2.3 12.4-3.9 17-.7 2.3-1.7 4.3-2.4 6-.8 1.7-1.5 3.1-2.2 4.3-1.3 2.2-2 3.4-2 3.4s.7-1.2 2.1-3.4c.6-1.1 1.4-2.6 2.3-4.2.8-1.7 1.7-3.7 2.5-6 1.7-4.5 3.4-10.3 4.3-17 1-6.7 1.3-14.4.5-22.8-.3-4.2-1-8.5-1.9-12.9-.9-4.4-2-8.9-3.5-13.5-2.8-9.1-6.7-18.6-11.7-27.7-5-9.2-11-18.2-17.9-26.7-6.8-8.6-14.7-16.6-23.3-23.6z" fill="#fff"/><path d="M717.513 222.536c1.432-3.828-.258-7.998-3.776-9.315-3.517-1.316-7.53.72-8.962 4.548-1.433 3.828.258 7.998 3.775 9.314 3.517 1.316 7.53-.72 8.963-4.547z" fill="#fff"/><path d="M702.6 239.3c3.4 1.6 7.5-.1 9.3-3.8 1.7-3.7.4-8-3-9.5-3.4-1.6-7.5.1-9.3 3.8-1.7 3.6-.4 7.9 3 9.5z" fill="#fff"/><path d="M695.9 250.9c3.2 1.9 7.5.6 9.6-2.9 2.1-3.5 1.1-7.9-2.1-9.8-3.2-1.9-7.5-.6-9.6 2.9-2 3.6-1.1 8 2.1 9.8z" fill="#fff"/><path d="M697.754 259.664c2.336-3.353 1.732-7.812-1.349-9.959-3.081-2.147-7.473-1.17-9.81 2.184-2.336 3.353-1.733 7.812 1.349 9.959 3.081 2.147 7.473 1.169 9.81-2.184zM718.6 103.7l1.2 3.4c.1.3-.1.6-.4.7l-6.8.5c-.5 0-.7-.6-.3-.9l5.6-3.8c.2-.3.6-.2.7.1zm-57-72.9l2.5 1.7c.2.2.3.5 0 .7l-4.4 3.8c-.3.3-.8-.1-.7-.5l2-5.5c.1-.3.4-.4.6-.2zM594.3 1.3l2.3.6c.2.1.3.3.2.5l-2.3 4c-.2.3-.6.2-.6-.2V1.6c-.1-.2.2-.4.4-.3zm-69 .9l1.8-.5c.2 0 .3.1.3.2v3.5c0 .3-.3.4-.5.1l-1.8-3c0-.1 0-.3.2-.3zm-48.1 25.9l.9-.7c.1-.1.2 0 .2.1l.8 2c.1.1-.1.3-.2.2l-1.7-1.3c-.1-.2-.1-.3 0-.3zm192.862 153.888l-2.773 8.141 19.878 6.772 2.774-8.141-19.879-6.772zm.638-.788l19.1 6.5-2.1-3.8-13.1-4.4-3.9 1.7zm4.6-2l12.1 4.1s-1-1.7-1.3-2.4c-2-4-3.7-4.6-8.3-2.8-.6.3-2.5 1.1-2.5 1.1z" fill="#fff"/><path d="M703.3 208.7c-2.8-.2-5.6.4-8.3 1.2-1.3.4-2.7.9-4 1.1-1.4.2-2.9 0-4-.7-1.9-1.3-2.4-3.9-1.8-6 .3-1 .8-2 1.5-2.9.3 0 3.3 1.3 4 1.1.6-.2 3.4-3.5 3.8-4.2.4-.6.6-1.4.6-2.1 0-.4 0-.7-.1-1.1 0-.1-.1-.3-.2-.5s-.1-.3-.2-.4c-.3-.6-.7-1-1-1.4-.3-.4-.7-.8-.9-1.1-.5-.7-.8-1.4-.8-1.9v-.6c0-.1.1-.2.1-.2s0 .1-.1.2c0 .1-.1.3-.2.6-.1.5 0 1.3.4 2.2.2.4.4.9.7 1.3.2.4.5.9.6 1.4 0 .1.1.2.1.3v.4c0 .2 0 .4-.1.7-.1.4-.3.9-.6 1.2-.3.4-1.3 2-1.8 2.1-.4.1-27.9-9.2-28.3-9.5-.3-.3.1-3.7.3-4.1l.3-.6.3-.3c.1-.1.2-.2.3-.2.4-.3.9-.5 1.3-.7.5-.2.9-.4 1.3-.6.8-.4 1.4-1 1.7-1.5.1-.2.2-.4.2-.6v-.2s0 .1-.1.2-.2.3-.3.5c-.3.4-1 .8-1.8 1-.4.1-.9.2-1.4.3-.5.1-1.1.2-1.6.5-.1.1-.3.1-.4.2-.1.1-.3.2-.4.3-.3.2-.5.5-.8.8-.4.6-.7 1.3-.8 2-.1.7-.6 4.9-.3 5.5.4.6 4.1 1.4 4.3 1.5 0 2.2-.8 4.5-1.4 6.7-1.9 6.3-2 11-2 11.6-.4.2-1.8.7-2.1.9-.8.4-1.6.8-2.3 1.2-.8.4-1.5.9-2.3 1.3-.7.4-1.4.9-2.1 1.4-.7.5-1.3.9-1.9 1.4-.3.3-.6.5-.9.8l-.2-.8c-.2-.9-1.1-1.4-2-1.2-.9.2-1.4 1.1-1.2 2l2 8c.2.9 1.1 1.4 2 1.2.9-.2 1.4-1.1 1.2-2l-1.5-6c.5-.2 1-.4 1.5-.7.6-.3 1.4-.5 2.1-.8.7-.2 1.5-.5 2.2-.7.8-.2 1.6-.4 2.3-.6.8-.2 1.6-.3 2.4-.5.3-.1.6-.1.9-.1.4 2.5.7 12.7 3.9 13.8 3.9 1.4 10-6.7 14-8.6 4-1.9 13.1-6.3 17.2-7.8 11.6-4.3 14.1.1 16.2-.4-.1-.3.8-.8 1.1-2.3.1-.1-4.6-2.7-10.6-3zm-23 6.4c-1.4 4.1-5.8 6.2-9.9 4.9-1.8-.6-3.3-1.9-4.2-3.4h3.2c.5.4 1 .7 1.7 1 2.7.9 5.6-.5 6.5-3.2.9-2.7-.5-5.6-3.2-6.5-2.2-.8-4.6.1-5.8 2-.2.1-.5.1-.8.2-.3.1-.6.1-.9.2l-.9.3c-.2 0-.4.1-.6.2.1-.2.1-.4.1-.6 1.4-4.1 5.8-6.2 9.9-4.9 4.2 1.3 6.3 5.7 4.9 9.8zm-8-6c-.4 0-.7.1-1.1.2.5-.2.9-.3 1.5-.3 2 0 3.7 1.7 3.7 3.7s-1.7 3.7-3.7 3.7c-.5 0-1-.1-1.5-.3.3.1.7.2 1.1.2 2 0 3.6-1.6 3.6-3.6s-1.6-3.6-3.6-3.6zm-594.9 39l-.6 1c-4.1-1.6-7.9 3.4-9.1 5-.5-.3-1.2-.1-1.6.5-.4.6-.3 1.3.1 1.6-.9 1.9-1.4 4-1.5 6.1-.1 1.2 0 2.4.3 3.6.1.6.3 1.2.6 1.7s.7 1 1.3 1.2c-.6-.2-.9-.8-1.2-1.3-.3-.5-.4-1.1-.5-1.7-.2-1.2-.2-2.3-.1-3.5.2-2 .9-3.9 1.8-5.6l5.6 3.5c.3 2.3-.4 4.7-2.1 6.5-1 1.1-2.3 1.8-3.6 2.1 3.8 1.2 7.9-3.8 9.6-6.2h.1c.5.3 1.2.1 1.6-.5.4-.6.3-1.4-.2-1.7.9-1.8 3.6-7.3.5-10.3l.8-1.3-1.8-.7zM44 175.6c-.3.1-.5.2-.7.3-.3-.4-.8-.6-1.3-.3 0 0-.1 0-.1.1v-.1c0-.1-.1 0 0 0v.1c-.2.2-.4.4-.4.7-1.1.3-1.6 1.2-2.1 2.2-.4.8-.9 1.7-1.6 2.3-1.2 1-2.3 1.4-3 1.2-.5-.1-.9-.7-1.2-1.3-.1-.1-.2-.3-.3-.4-.3-.4-.8-1.3-.4-1.9.1-.2.2-.3.3-.3 0 0 .1-.1.2-.1.2-.1.4-.2.6-.2.1 0 .1 1.1.1 1.1 0-.1 2.1-3 2.1-3l-1 .7c-.2.1-.7.4-2 .8-.2.1-.2.1-.3.1-.3.1-.5.4-.7.7-.3.6-.2 1.3.1 2.1.1.2.2.4.4.6.1.1.2.2.2.4.4.6.9 1.4 1.6 1.6 1 .3 2.2-.1 3.7-1.4.9-.7 1.4-1.7 1.8-2.5.5-.9.9-1.7 1.7-1.9.3.4.8.5 1.2.3.5-.2.7-.8.4-1.3.2-.1.4-.2.7-.3v-.3zm35.7 72.6l1.2-1.9s.7-1.4 0-1.9c-.7-.4-1.7.7-1.7.7l-1.4 2.2 1.9.9zm-37-71.2c-.2.1-.5 0-.7-.2-.1-.2 0-.5.2-.7.2-.1.5 0 .6.1l.1.1c.1.2 0 .5-.2.7zM65 268.2l-3 4.7 1.7 1.1 3-4.8c-.3-.1-.7-.3-1-.5-.2-.1-.5-.3-.7-.5zm-15.4 24.6s-.5 1 .3 1.5c.7.4 1.4-.4 1.4-.4l2.9-4.7-1.7-1.1-2.9 4.7zm13.5-19.2l-3.1 5-1.1-.7-3.1 4.9 1.1.7-3.2 5.2.6.4 3.2-5.2 3.1-4.9 3.1-5-.6-.4z" fill="#fff"/><path opacity=".4" d="M605.3 85.6c-.3-1-.7-2-1-2.9-.4-1-.9-1.9-1.4-2.8-1.1-1.8-2.5-3.4-4.1-4.7-3.1-2.7-6.9-4.7-10.9-5.8-2-.6-4-.9-6-1.2-2-.2-4.1-.3-6.1-.2-4.1.1-8.1.8-12 1.8-3.9 1-7.7 2.2-11.5 3.8-1.9.7-3.7 1.6-5.5 2.4-1.8.8-3.7 1.5-5.7 2-7.7 2.2-15.8 2.8-23.9 2.6-8-.3-16-1.4-23.8-3.4-3.9-1-7.7-2.3-11.4-3.8-3.7-1.6-7.3-3.4-10.5-5.7-3.2-2.3-6.2-5.2-7.9-8.8-.8-1.8-1.3-3.8-1.2-5.8.1-2 .6-3.9 1.4-5.7 1.7-3.6 4.5-6.6 7.5-9.2 3-2.6 6.4-4.9 9.8-6.9l-.3-.4c-3.4 2.1-6.8 4.4-9.8 7-3 2.7-5.8 5.7-7.5 9.4-.9 1.8-1.4 3.8-1.4 5.9 0 2 .4 4.1 1.3 5.9 1.7 3.7 4.7 6.6 8 8.9 3.3 2.3 6.9 4.2 10.6 5.7 3.7 1.5 7.6 2.8 11.4 3.8 7.8 2 15.8 3.1 23.9 3.4 8 .2 16.1-.4 23.9-2.6 1.9-.6 3.8-1.2 5.7-2 1.8-.8 3.7-1.6 5.6-2.3 3.7-1.5 7.6-2.7 11.5-3.6 3.9-.8 7.9-1.3 11.9-1.3 2 0 4 .1 5.9.4 2 .3 3.9.7 5.8 1.3 3.7 1.2 7.3 3.1 10.2 5.7 1.4 1.3 2.7 2.8 3.7 4.4.5.8.9 1.6 1.3 2.6.4.9.7 1.8 1 2.8 1.2 3.7 1.6 7.7.9 11.5-.6 3.8-2.5 7.4-4.9 10.4-2.4 3.1-5.5 5.7-8.7 7.9-3.2 2.3-6.7 4.2-10.3 6-7.2 3.5-14.7 6.1-22.4 8.5-7.7 2.3-15.5 4.2-23.3 5.9-15.7 3.4-31.6 5.8-47.5 8-15.9 2.1-31.9 3.9-47.9 5.4-32 3.2-64 5.6-96 8.9-8 .8-16 1.8-24 2.3-8 .5-16 .8-24 .2-2.8-.2-5.6-.6-8.3-1.2.9-.3 1.8-.5 2.7-.9 1.9-.8 3.8-1.7 5.2-3.4.7-.9 1.1-2 1.1-3.1s-.3-2.2-.8-3.1c-.5-1-1.2-1.8-2.1-2.4-.9-.6-2-.9-3-1.1-2.1-.3-4.2.1-6.2.8-1.9.8-3.7 1.9-5.1 3.5-.7.8-1.2 1.8-1.4 2.9-.2 1.1.1 2.3.8 3.2.6.9 1.5 1.6 2.4 2.1.9.5 1.8 1 2.7 1.3-3.8.7-7.6 1.1-11.4 1.4-8 .5-16 .5-24.1.2-8-.3-16-.8-24-1.6-4-.4-8-.9-12-1.4-4-.5-8-.9-12-1.3-8-.7-16.1-1-24.1-.7-8 .3-16.1 1.3-23.8 3.6-3.9 1.2-7.6 2.7-11.1 4.9-3.4 2.1-6.6 4.8-9 8-2.5 3.2-4.3 6.9-5.6 10.7-1.4 3.8-2.2 7.7-3.3 11.6-1 3.6-2.8 7-5.2 9.8-.6-1.5-1.4-3-2.2-4.4-.5-.9-1-1.7-1.7-2.6l-.9-1.2-1-1.2c-.6-.8-1.4-1.5-2.1-2.3-.7-.7-1.5-1.4-2.3-2.1-3.2-2.6-7-4.7-11.1-5.6-1-.2-2.1-.4-3.1-.4h-1.6c-.5 0-1.1 0-1.6.1-2.1.3-4.2 1-6.1 2-1.9 1.1-3.5 2.5-4.8 4.3-.6.9-1.2 1.9-1.5 2.9-.4 1-.6 2.1-.7 3.2-.3 4.4 1.6 8.7 4.7 11.7 3.2 3 7.3 4.8 11.6 5.4 8.6 1.2 17.6-2.1 23.6-8.4.1-.1.2-.2.2-.3.7 1.9 1.3 3.9 1.7 5.8.8 3.8.9 7.7.4 11.5-.6 3.8-1.9 7.4-3.7 10.6-1.9 3.2-4.3 6.1-7.1 8.4-5.5 4.7-12.6 7.4-19.4 7.4-3.3 0-6.5-.7-9.5-1.8l-1.9-.8c-2.5-1.1-4.7-2.6-6.7-4.3-3.7-3.1-7.3-8.9-8.2-11.1-.8-2.2-1.2-3.9-1.2-4.1-.6-2.8-.7-5.7-.6-8.4.1-2.8.5-5.4 1-8 .9-5.1 1.8-10 2-14.5.2-4.5-.4-8.8-2-12.3-1.5-3.5-4-6-6.5-7.6-2.5-1.5-5-2.2-7-2.3-2-.1-3.6.4-4.5.8-.3.1-.5.2-.7.3l.1.1c.2-.1.4-.2.7-.3 1-.4 2.5-.8 4.5-.7 2 .1 4.4.8 6.9 2.3 2.4 1.6 4.9 4 6.3 7.5 1.5 3.4 2 7.6 1.8 12.1-.2 4.5-1.1 9.3-2 14.5-.4 2.6-.9 5.3-1 8.1-.2 2.8-.1 5.7.5 8.6 0 .2.6 2.5 1.3 4.2.7 1.7 4.5 8.3 8.3 11.5 2 1.7 4.3 3.2 6.8 4.4l1.9.8c.7.3 1.5.5 2.2.8.8.3 1.7.4 2.5.6.8.2 1.7.3 2.6.4.9.1 1.7.1 2.6.2 7.1.1 14.3-2.7 20-7.6 2.8-2.4 5.4-5.3 7.3-8.6 1.9-3.3 3.2-7 3.8-10.9.6-3.9.4-7.9-.4-11.8-.5-2.2-1.1-4.3-1.9-6.4 2.5-3 4.4-6.5 5.4-10.2 1.1-3.9 1.9-7.8 3.3-11.6 1.3-3.8 3.1-7.4 5.6-10.5 2.4-3.2 5.5-5.8 8.9-7.9 3.4-2.1 7.1-3.6 11-4.8 7.7-2.3 15.7-3.2 23.7-3.5 8-.3 16.1.1 24.1.8 4 .4 8 .8 12 1.3s8 1.1 12 1.5c8 .8 16 1.4 24.1 1.7 8 .3 16.1.4 24.1-.1 4-.3 8-.7 12-1.5.3-.1.7-.1 1-.2 3.4 1 6.9 1.5 10.3 1.8 16.2 1.2 32.3-.8 48.2-2.4 32-3.2 64.1-5.5 96.1-8.7 16-1.6 32-3.3 48-5.4 15.9-2.1 31.9-4.6 47.6-7.9 7.9-1.7 15.7-3.6 23.4-5.9 7.7-2.3 15.4-5 22.7-8.5 3.6-1.8 7.2-3.7 10.6-6.1 3.3-2.3 6.5-5 9.1-8.3 2.6-3.2 4.5-7.1 5.2-11.2.2-4.2-.3-8.5-1.5-12.4zM116.8 206.2c-5.9 6.1-14.8 9.3-23.1 8.1-4.1-.6-8.2-2.3-11.2-5.3-3-2.9-4.7-7.1-4.4-11.2.1-1 .3-2 .6-3 .4-1 .8-1.8 1.4-2.7 1.2-1.7 2.8-3 4.5-4 1.8-1 3.7-1.6 5.8-1.9.5-.1 1-.1 1.5-.1h1.5c1 .1 2 .2 3 .4 4 .9 7.6 2.9 10.7 5.4 3.1 2.6 5.7 5.7 7.7 9.1.9 1.5 1.7 3 2.3 4.6-.1.3-.2.5-.3.6zm162.4-50.4c-.5-.7-.7-1.6-.6-2.5.2-.9.6-1.7 1.2-2.4 1.2-1.4 2.9-2.5 4.7-3.2 1.8-.7 3.8-1.1 5.7-.8.9.1 1.8.4 2.6.9s1.4 1.2 1.8 2c.4.8.7 1.8.7 2.7 0 .9-.3 1.8-.9 2.5-1.1 1.5-3 2.4-4.8 3.1-1.3.5-2.7.9-4.2 1.3-.5-.2-1.1-.3-1.6-.5-1.7-.6-3.6-1.6-4.6-3.1z" fill="#fff"/><defs><clipPath id="clip0_2_16"><path fill="#fff" transform="translate(210 245)" d="M0 0h365.418v87H0z"/></clipPath></defs></svg>