<svg width="152" height="36" viewBox="0 0 152 36" fill="none" xmlns="http://www.w3.org/2000/svg">
<path d="M19.3577 11.3992L15.0076 4.58492L15.4267 3.3783L24.8066 1.3715C25.2194 1.28259 25.4416 1.47311 25.2003 1.91766L20.0817 11.3674C19.8594 11.7738 19.5546 11.7103 19.3577 11.3992Z" fill="#FBB900"/>
<path d="M19.6183 7.14321V1.46574C19.6183 1.00849 19.4722 0.703663 18.9959 0.652858L12.6326 0.00509252C12.1499 -0.0457126 12.0229 0.290871 12.0674 0.690961L12.7913 7.49249C12.8294 7.85448 13.0009 8.11486 13.4709 8.0958L19.0404 7.82273C19.4785 7.79732 19.6183 7.60045 19.6183 7.14321Z" fill="#B70E80"/>
<path d="M10.7464 31.2625C12.0547 31.2625 13.1152 32.3231 13.1152 33.6313C13.1152 34.9396 12.0547 36.0001 10.7464 36.0001C9.43822 36.0001 8.37766 34.9396 8.37766 33.6313C8.37766 32.3231 9.43822 31.2625 10.7464 31.2625ZM4.94831 30.9641C8.66344 29.8209 12.5754 28.5826 16.2906 27.4395C16.7986 27.268 17.0145 27.0711 17.0082 26.182L17.2304 16.9291L21.4028 14.7699C22.4761 14.2111 21.7076 12.9219 20.7487 13.4045L16.589 15.5003C16.0937 15.7479 15.7253 16.3258 15.6999 16.8783L15.6301 18.2882L0.845802 19.5266C0.0710241 19.5901 -0.132196 20.3013 0.0773747 20.8729L3.53212 30.2464C3.67819 30.6529 4.19259 31.199 4.94831 30.9641ZM17.9544 27.8014C18.6339 27.8014 19.1928 28.3539 19.1928 29.0398C19.1928 29.7193 18.6403 30.2782 17.9544 30.2782C17.2749 30.2782 16.716 29.7257 16.716 29.0398C16.716 28.3603 17.2749 27.8014 17.9544 27.8014Z" fill="#51AE32"/>
<path d="M7.22223 10.3309L6.16803 14.8398L1.31614 17.088C0.941453 17.2594 0.954155 17.6024 1.25899 17.7738L5.06937 19.8822L4.21838 26.2265C4.17393 26.544 4.44066 26.7409 4.77724 26.398L9.76884 21.2603L14.9192 22.251C15.5479 22.3717 15.5035 21.9462 15.3828 21.7049L12.9759 16.8466L16.7355 10.9215C16.9832 10.5278 16.7672 10.2991 16.4053 10.4388L10.2261 12.9283L7.79379 10.1404C7.47626 9.77838 7.28574 10.0705 7.22223 10.3309Z" fill="#0069B4"/>
<path d="M30.3128 0.164348L29.4936 0.627945L28.3505 0.424724C28.0647 0.373919 28.0329 0.456478 28.0837 0.659698L28.2743 1.45353L27.3153 2.29816C27.1565 2.43788 27.201 2.62204 27.455 2.60934L28.9284 2.53314L29.6905 3.34602C29.8302 3.49208 29.9572 3.42857 30.027 3.27616L30.4716 2.2283L32.091 1.73296C32.345 1.65675 32.3196 1.48528 32.1418 1.42812L30.6748 0.964528L30.6939 0.348517C30.7129 -0.0325213 30.5097 0.0563876 30.3128 0.164348Z" fill="#51AE32"/>
<path fill-rule="evenodd" clip-rule="evenodd" d="M3.95801 19.266L5.06937 19.882L4.21838 26.2263C4.17393 26.5438 4.44066 26.7407 4.77724 26.3977L9.76884 21.2601L14.9192 22.2508C15.5479 22.3714 15.5035 21.9459 15.3828 21.7046L13.7697 18.4531L3.95801 19.266Z" fill="#008237"/>
<path fill-rule="evenodd" clip-rule="evenodd" d="M19.6181 7.14374V2.51413C18.0749 2.83801 16.538 3.16189 14.9948 3.48578C14.6328 3.53658 14.6201 3.98748 14.7471 4.20975L17.1159 7.91852L19.0338 7.82326C19.4784 7.79786 19.6181 7.60099 19.6181 7.14374Z" fill="#702383"/>
<path fill-rule="evenodd" clip-rule="evenodd" d="M62.0595 20.4801L63.8885 12.2053C62.8215 11.9385 61.1132 11.6718 59.6018 11.6718C57.2965 11.6718 55.6009 12.2497 54.3117 13.7104C52.1398 16.1807 51.492 19.8387 50.3934 21.6677C49.898 22.4933 47.4022 22.9188 46.6401 22.6266C46.6338 22.652 46.8243 21.5597 47.0212 20.7977L47.434 19.2037C47.6689 18.1685 47.9039 17.0444 47.9039 16.0728C47.9039 12.4085 44.8302 11.6718 42.3471 11.6718C40.5181 11.6718 38.6256 12.1163 37.057 12.7641L37.5905 15.5711C38.9495 15.0122 40.3085 14.6566 41.5469 14.6566C43.3759 14.6566 43.9094 15.3679 43.9094 16.4284C43.9094 16.5491 43.8776 16.8095 43.8522 17.019L42.5249 17.0508C39.9529 17.0508 37.6476 17.5525 36.1997 18.8544C35.2534 19.7117 34.6882 20.8612 34.6882 22.4869C34.6882 24.7351 36.1997 26.3037 38.6256 26.3037C40.3403 26.3037 41.9343 25.3257 42.9377 23.9349C43.16 25.6876 44.6206 26.3672 46.3289 26.3227C48.6025 26.2592 52.5145 25.5416 53.7528 22.9061C54.8324 20.6071 55.6644 17.9653 56.9345 16.1109C57.4108 15.4123 58.084 14.9868 58.9159 14.9868C59.0366 14.9868 59.2144 14.9868 59.3287 15.0186L58.0586 20.6897C57.6394 22.5568 57.7791 24.9573 58.8461 26.6593L62.4913 25.313C61.5324 23.719 61.7292 21.9789 62.0595 20.4801ZM43.3696 20.188C42.925 22.0487 41.2421 23.2046 39.8513 23.2046C38.994 23.2046 38.4605 22.8235 38.4605 21.9027C38.4605 21.401 38.6383 20.9564 38.994 20.6008C39.6163 19.9784 40.7975 19.6545 42.69 19.6545H43.4902L43.3696 20.188Z" fill="white"/>
<path d="M95.7879 20.4801L97.6168 12.0274H93.8636L90.0215 16.5491C89.5515 17.0825 88.7514 17.997 88.2496 18.7655H88.1925C87.4241 16.4919 86.5096 14.1549 85.5062 12.0274H82.4325C81.753 15.66 80.9591 19.5656 79.9811 21.3375C79.4667 22.2647 76.8884 23.1728 75.9231 22.8235C75.9929 22.2139 76.1644 21.4645 76.3359 20.7977L76.7487 19.2037C76.9836 18.1685 77.2186 17.0444 77.2186 16.0728C77.2186 12.4085 74.1449 11.6718 71.6618 11.6718C69.8328 11.6718 67.9403 12.1163 66.3717 12.7641L66.9052 15.5711C68.2642 15.0122 69.6232 14.6566 70.8616 14.6566C72.6906 14.6566 73.224 15.3679 73.224 16.4284C73.224 16.5491 73.1923 16.8095 73.1669 17.019L71.8396 17.0508C69.2676 17.0508 66.9623 17.5525 65.5144 18.8544C64.5681 19.7117 64.0029 20.8612 64.0029 22.4869C64.0029 24.7351 65.5144 26.3037 67.9403 26.3037C69.655 26.3037 71.249 25.3257 72.2524 23.9349C72.6779 27.0657 78.6411 26.6974 81.048 25.1161C82.75 23.992 83.3597 22.5504 83.9757 20.5817C84.2106 19.8387 84.4329 19.0449 84.6171 18.1113H84.6742C85.3538 19.7371 86.0333 21.6867 86.5032 23.1347H88.1544L90.6946 20.1499C91.1392 19.6164 91.9076 18.7337 92.3204 18.2003H92.4093C91.7171 20.7723 90.6819 23.9793 92.3141 26.6212L96.1244 25.205C95.4957 23.8523 95.337 22.5631 95.7879 20.4801ZM72.6715 20.188C72.227 22.0487 70.5441 23.2046 69.1533 23.2046C68.296 23.2046 67.7625 22.8235 67.7625 21.9027C67.7625 21.401 67.9403 20.9564 68.296 20.6008C68.9183 19.9784 70.0995 19.6545 71.9857 19.6545H72.7859L72.6715 20.188Z" fill="white"/>
<path d="M124.169 11.7854C122.066 11.3345 120.25 11.9315 118.567 14.2749C118.65 13.1254 118.25 12.0649 117.843 11.4362L114.509 12.719C114.865 13.5001 115.081 14.5416 114.89 15.4307L113.36 22.5053C112.509 22.9943 109.867 23.2483 109.537 22.861C109.689 21.8322 110.102 20.3652 110.4 19.2157C110.635 18.1805 110.87 17.0565 110.87 16.0848C110.87 12.4205 107.797 11.6838 105.313 11.6838C103.484 11.6838 101.592 12.1284 100.023 12.7761L100.557 15.5831C101.916 15.0243 103.275 14.6686 104.513 14.6686C106.342 14.6686 106.876 15.3799 106.876 16.4405C106.876 16.5611 106.844 16.8215 106.819 17.0311L105.491 17.0628C102.919 17.0628 100.614 17.5645 99.166 18.8664C98.2197 19.7237 97.6545 20.8732 97.6545 22.499C97.6545 24.7471 99.166 26.3157 101.592 26.3157C103.307 26.3157 104.901 25.3377 105.904 23.9469C105.853 24.7979 108.819 27.2937 112.636 25.8204L111.08 33.022H115.043L116.611 25.8394C117.526 26.1696 118.44 26.3157 119.418 26.3157C123.997 26.3157 127.268 22.8483 127.452 17.7741C127.56 15.1005 126.671 12.3189 124.169 11.7854ZM106.33 20.1873C105.885 22.0481 104.202 23.2039 102.811 23.2039C101.954 23.2039 101.42 22.8229 101.42 21.902C101.42 21.4003 101.598 20.9558 101.954 20.6001C102.576 19.9778 103.758 19.6539 105.644 19.6539H106.444L106.33 20.1873ZM123.47 18.1488C123.356 20.7779 121.787 23.0515 119.101 23.0515C118.599 23.0515 117.951 22.9626 117.329 22.6958L117.875 19.6348C118.669 15.2656 123.699 12.9794 123.47 18.1488Z" fill="white"/>
<path d="M127.986 26.0045H131.948L133.13 20.7462C133.511 18.9172 134.108 17.7042 134.755 16.8469C135.79 15.5196 136.851 15.1322 137.505 15.1322C138.185 15.1322 138.54 15.5133 138.54 16.2563C138.54 16.5548 138.483 17.1136 138.331 17.7042L136.502 26.0045H140.458L141.639 20.7462C142.052 18.8855 142.643 17.6725 143.297 16.8151C144.332 15.5133 145.393 15.1322 146.047 15.1322C146.701 15.1322 147.05 15.5133 147.05 16.2817C147.05 16.5484 146.974 17.1073 146.841 17.6979L145.647 23.1086C145.266 24.8233 145.57 26.1506 146.034 26.9952L149.787 25.6171C149.413 24.836 149.425 23.9406 149.66 22.8673L150.746 17.844C150.962 16.8342 151.229 15.6276 151.216 14.7131C151.197 12.7063 149.889 11.6711 147.907 11.6711C145.691 11.6711 143.684 13.2397 142.528 14.7702H142.471C142.44 12.7317 141.322 11.6711 139.34 11.6711C137.181 11.6711 135.232 13.1762 134.114 14.7131H134.057C134.241 13.5319 134.019 12.2363 133.65 11.4362L130.138 12.7253C130.462 13.2651 130.488 14.675 130.342 15.3482L127.986 26.0045Z" fill="white"/>
<path d="M33.1769 5.84825C31.8179 5.84825 27.9059 5.8292 26.9533 9.95711L23.397 26.0115H28.0139L31.1384 11.621C31.3734 10.6176 31.729 9.63323 33.3802 9.70309H39.8895L40.6262 5.84825H33.1769Z" fill="white"/>
</svg>
