<svg width="727" height="332" viewBox="0 0 727 332" fill="none" xmlns="http://www.w3.org/2000/svg">
<path opacity="0.3" d="M0 131H185V136H0V131Z" fill="white"/>
<path opacity="0.3" d="M211 131H459V136H211V131Z" fill="white"/>
<path opacity="0.3" d="M235 225H298V230H235V225Z" fill="white"/>
<path opacity="0.3" d="M325 225H573L571 230H325V225Z" fill="white"/>
<path d="M53.4519 102.586C51.4505 108.395 48.2287 113.008 43.7866 116.425C39.198 119.988 33.9017 121.77 27.8975 121.77C20.136 121.77 13.546 119.109 8.12762 113.789C2.70921 108.468 0 101.927 0 94.1652C0 86.5502 2.66039 80.1311 7.98117 74.9079C13.3508 69.636 19.8431 67 27.4582 67C33.7552 67 39.198 68.7329 43.7866 72.1987C48.424 75.6157 51.6213 80.3507 53.3787 86.4037H40.5649C37.636 80.6436 33.2671 77.7636 27.4582 77.7636C22.9672 77.7636 19.2817 79.35 16.4017 82.523C13.5216 85.6959 12.0816 89.5523 12.0816 94.092C12.0816 98.583 13.546 102.513 16.4749 105.881C19.4038 109.249 23.0893 110.933 27.5314 110.933C33.4379 110.933 37.7824 108.151 40.5649 102.586H53.4519Z" fill="white"/>
<path d="M77.5533 81.4979C83.4598 81.4979 88.3657 83.3772 92.2709 87.136C96.176 90.8947 98.1286 95.7029 98.1286 101.561C98.1286 107.418 96.176 112.251 92.2709 116.059C88.3657 119.866 83.4598 121.77 77.5533 121.77C71.7444 121.77 66.8629 119.866 62.9089 116.059C59.0038 112.202 57.0512 107.37 57.0512 101.561C57.0512 95.7517 59.0038 90.9679 62.9089 87.2092C66.8629 83.4016 71.7444 81.4979 77.5533 81.4979ZM87.5114 101.707C87.5114 98.6806 86.584 96.1666 84.729 94.1652C82.9229 92.1638 80.531 91.1631 77.5533 91.1631C74.6244 91.1631 72.2325 92.1883 70.3776 94.2385C68.5714 96.2399 67.6683 98.7294 67.6683 101.707C67.6683 104.636 68.5958 107.101 70.4508 109.102C72.3057 111.104 74.6732 112.105 77.5533 112.105C80.4822 112.105 82.8741 111.128 84.729 109.176C86.584 107.174 87.5114 104.685 87.5114 101.707Z" fill="white"/>
<path d="M143.17 102.073C143.17 108.077 141.291 112.861 137.532 116.425C133.773 119.988 128.868 121.77 122.815 121.77C116.713 121.77 111.929 120.037 108.463 116.571C105.046 113.056 103.338 108.224 103.338 102.073V91.9686C103.338 75.4205 111.709 67.1464 128.453 67.1464H141.047V75.4937H125.451C122.131 75.4937 119.373 76.4212 117.177 78.2761C115.029 80.0823 113.711 82.6206 113.223 85.8912C112.93 86.0864 112.783 86.4037 112.783 86.8431C112.783 86.9895 112.808 87.2336 112.856 87.5753C112.905 87.8682 112.93 88.0878 112.93 88.2343C115.81 84.5244 120.008 82.6694 125.524 82.6694C131.186 82.6694 135.58 84.5244 138.704 88.2343C141.681 91.7001 143.17 96.3131 143.17 102.073ZM122.815 112.031C125.743 112.031 128.087 111.128 129.844 109.322C131.65 107.467 132.553 105.075 132.553 102.146C132.553 99.2664 131.674 96.8989 129.917 95.0439C128.16 93.1401 125.841 92.1883 122.961 92.1883C120.179 92.1883 117.958 93.1401 116.298 95.0439C114.638 96.9477 113.808 99.3152 113.808 102.146C113.808 105.124 114.565 107.516 116.078 109.322C117.64 111.128 119.886 112.031 122.815 112.031Z" fill="white"/>
<path d="M184.638 120.745H173.728V98.046L158.717 120.745H149.052V82.6694H159.962V104.563L174.973 82.6694H184.638V120.745Z" fill="white"/>
<path d="M233.528 101.927C233.528 107.248 231.844 111.86 228.476 115.766C224.961 119.866 220.568 121.916 215.296 121.916C210.61 121.916 206.705 120.257 203.581 116.937V152H192.67V82.6694H203.068V87.2092C205.997 83.4016 210 81.4979 215.076 81.4979C220.739 81.4979 225.279 83.5237 228.696 87.5753C231.917 91.3828 233.528 96.1666 233.528 101.927ZM203.361 101.634C203.361 104.66 204.264 107.199 206.07 109.249C207.925 111.299 210.341 112.324 213.319 112.324C216.101 112.324 218.445 111.275 220.348 109.176C222.252 107.028 223.204 104.538 223.204 101.707C223.204 98.7782 222.276 96.2887 220.422 94.2385C218.567 92.1883 216.175 91.1631 213.246 91.1631C210.317 91.1631 207.925 92.1638 206.07 94.1652C204.264 96.1666 203.361 98.6562 203.361 101.634Z" fill="white"/>
<path d="M279.039 120.745H268.203V116.425C267.031 118.133 265.396 119.476 263.297 120.452C261.198 121.379 259.05 121.843 256.853 121.843C251.288 121.843 246.724 119.842 243.161 115.839C239.744 112.031 238.035 107.296 238.035 101.634C238.035 95.9714 239.768 91.212 243.234 87.3556C246.749 83.4505 251.313 81.4979 256.927 81.4979C262.003 81.4979 265.738 83.182 268.129 86.5502V82.6694H279.039V120.745ZM268.422 101.854C268.422 98.827 267.47 96.2887 265.567 94.2385C263.663 92.1394 261.198 91.0899 258.171 91.0899C255.34 91.0899 252.997 92.1394 251.142 94.2385C249.336 96.2887 248.433 98.7538 248.433 101.634C248.433 104.465 249.385 106.955 251.288 109.102C253.192 111.25 255.535 112.324 258.318 112.324C261.1 112.324 263.468 111.299 265.42 109.249C267.422 107.15 268.422 104.685 268.422 101.854Z" fill="white"/>
<path d="M305.138 81.4247C309.678 81.4247 313.608 82.645 316.927 85.0857C320.247 87.5265 322.59 90.8947 323.956 95.1903C324.738 97.5823 325.128 100.365 325.128 103.538C325.128 103.879 325.079 104.343 324.982 104.929H295.546C296.474 110.347 299.769 113.056 305.431 113.056C309.434 113.056 312.046 111.641 313.266 108.81H324.323C322.712 112.812 320.222 116.01 316.854 118.402C313.486 120.745 309.654 121.916 305.358 121.916C299.452 121.916 294.619 120.037 290.86 116.278C287.15 112.471 285.295 107.614 285.295 101.707C285.295 96.191 287.224 91.4316 291.08 87.4288C294.936 83.426 299.622 81.4247 305.138 81.4247ZM314.731 97.6067C313.51 92.7252 310.362 90.2845 305.285 90.2845C300.257 90.2845 297.084 92.7252 295.766 97.6067H314.731Z" fill="white"/>
<path d="M376.573 120.745H366.175L366.468 97.2406L357.462 120.745H350.432L341.499 97.2406L341.792 120.745H331.322V82.6694H345.453L353.947 107.272L362.441 82.6694H376.573V120.745Z" fill="white"/>
<path d="M422.737 106.613C421.467 111.299 419.076 115.033 415.561 117.816C412.095 120.549 407.946 121.916 403.113 121.916C397.353 121.916 392.52 119.988 388.615 116.132C384.759 112.227 382.831 107.418 382.831 101.707C382.831 95.8493 384.71 91.0167 388.469 87.2092C392.276 83.4016 397.085 81.4979 402.894 81.4979C407.921 81.4979 412.193 82.8403 415.707 85.5251C419.222 88.1611 421.516 91.9198 422.59 96.8012H412.046C410.972 94.7022 409.728 93.2378 408.312 92.4079C406.945 91.5293 405.066 91.0899 402.674 91.0899C399.843 91.0899 397.573 92.1394 395.864 94.2385C394.156 96.2887 393.301 98.7782 393.301 101.707C393.301 104.685 394.205 107.199 396.011 109.249C397.817 111.25 400.184 112.251 403.113 112.251C407.604 112.251 410.582 110.372 412.046 106.613H422.737Z" fill="white"/>
<path d="M459.244 120.745H448.407V104.929L437.644 120.745H425.416L436.326 105.661C433.446 104.978 431.176 103.66 429.516 101.707C427.905 99.7545 427.1 97.3138 427.1 94.3849C427.1 86.5746 432.274 82.6694 442.623 82.6694H459.244V120.745ZM448.407 99.1443V90.6506H443.135C440.06 90.6506 438.522 91.993 438.522 94.6778C438.522 96.0934 439.059 97.2161 440.133 98.046C441.061 98.7782 442.281 99.1443 443.794 99.1443H448.407Z" fill="white"/>
<path d="M227.113 231H216.18V199.228H203.633V214.711H192.7V161.556H203.633V191.084H216.18V176.556H227.113V231Z" fill="white"/>
<path d="M274.521 214.711H263.661V210.382C262.487 212.094 260.849 213.439 258.745 214.417C256.642 215.347 254.489 215.811 252.288 215.811C246.712 215.811 242.138 213.806 238.567 209.795C235.143 205.979 233.431 201.234 233.431 195.56C233.431 189.885 235.167 185.116 238.64 181.252C242.162 177.338 246.736 175.382 252.361 175.382C257.449 175.382 261.191 177.069 263.588 180.444V176.556H274.521V214.711ZM263.881 195.78C263.881 192.747 262.928 190.203 261.02 188.149C259.112 186.045 256.642 184.994 253.609 184.994C250.772 184.994 248.424 186.045 246.565 188.149C244.755 190.203 243.85 192.674 243.85 195.56C243.85 198.397 244.804 200.892 246.712 203.044C248.619 205.196 250.967 206.273 253.756 206.273C256.544 206.273 258.916 205.245 260.873 203.191C262.879 201.087 263.881 198.617 263.881 195.78Z" fill="white"/>
<path d="M347.217 195.853C347.217 201.185 345.53 205.808 342.154 209.721C338.632 213.83 334.23 215.885 328.947 215.885C324.251 215.885 320.338 214.221 317.207 210.895V231H306.274V176.556H316.693V181.105C319.628 177.289 323.639 175.382 328.727 175.382C334.401 175.382 338.95 177.412 342.375 181.472C345.603 185.287 347.217 190.081 347.217 195.853ZM316.987 195.56C316.987 198.593 317.892 201.136 319.702 203.191C321.56 205.245 323.982 206.273 326.966 206.273C329.754 206.273 332.102 205.221 334.01 203.117C335.918 200.965 336.871 198.47 336.871 195.633C336.871 192.698 335.942 190.203 334.083 188.149C332.224 186.094 329.827 185.067 326.892 185.067C323.957 185.067 321.56 186.07 319.702 188.075C317.892 190.081 316.987 192.576 316.987 195.56Z" fill="white"/>
<path d="M398.988 214.711H387.981V176.556H398.988V214.711ZM353.495 176.556H364.428V190.717C369.466 190.717 372.866 190.913 374.627 191.304C381.084 192.771 384.313 196.66 384.313 202.971C384.313 210.797 379.152 214.711 368.83 214.711H353.495V176.556ZM373.086 202.971C373.086 200.182 371.35 198.788 367.876 198.788H364.428V206.639H368.463C371.545 206.639 373.086 205.416 373.086 202.971Z" fill="white"/>
<path d="M446.056 196C446.056 202.017 444.172 206.811 440.406 210.382C436.639 213.952 431.723 215.738 425.657 215.738C419.543 215.738 414.749 214.001 411.276 210.528C407.851 207.006 406.139 202.163 406.139 196V185.874C406.139 169.291 414.529 161 431.307 161H443.928V169.365H428.299C424.972 169.365 422.209 170.294 420.007 172.153C417.855 173.963 416.534 176.507 416.045 179.784C415.752 179.98 415.605 180.298 415.605 180.738C415.605 180.885 415.629 181.129 415.678 181.472C415.727 181.765 415.752 181.985 415.752 182.132C418.638 178.414 422.844 176.556 428.372 176.556C434.046 176.556 438.449 178.414 441.58 182.132C444.564 185.605 446.056 190.228 446.056 196ZM425.657 205.979C428.592 205.979 430.94 205.074 432.701 203.264C434.511 201.405 435.416 199.008 435.416 196.073C435.416 193.187 434.536 190.815 432.775 188.956C431.014 187.048 428.69 186.094 425.804 186.094C423.016 186.094 420.79 187.048 419.127 188.956C417.464 190.864 416.632 193.236 416.632 196.073C416.632 199.057 417.39 201.454 418.907 203.264C420.472 205.074 422.722 205.979 425.657 205.979Z" fill="white"/>
<path d="M491.279 214.711H480.419V210.382C479.245 212.094 477.607 213.439 475.503 214.417C473.4 215.347 471.247 215.811 469.046 215.811C463.47 215.811 458.896 213.806 455.325 209.795C451.901 205.979 450.189 201.234 450.189 195.56C450.189 189.885 451.925 185.116 455.398 181.252C458.92 177.338 463.494 175.382 469.119 175.382C474.207 175.382 477.949 177.069 480.346 180.444V176.556H491.279V214.711ZM480.639 195.78C480.639 192.747 479.685 190.203 477.778 188.149C475.87 186.045 473.4 184.994 470.367 184.994C467.53 184.994 465.182 186.045 463.323 188.149C461.513 190.203 460.608 192.674 460.608 195.56C460.608 198.397 461.562 200.892 463.47 203.044C465.377 205.196 467.725 206.273 470.514 206.273C473.302 206.273 475.674 205.245 477.631 203.191C479.637 201.087 480.639 198.617 480.639 195.78Z" fill="white"/>
<path d="M533.282 214.711H522.495L514.644 189.69L506.72 214.711H496.08L509.288 176.556H520.001L533.282 214.711Z" fill="white"/>
<path d="M573.011 214.711H560.391L548.871 196.293V214.711H538.158V176.556H548.871V194.092L560.758 176.556H572.644L559.29 195.193L573.011 214.711Z" fill="white"/>
<path d="M611.77 176.556L591.225 231H580.366L587.483 212.95L573.028 176.556H584.108L592.693 200.329L600.837 176.556H611.77Z" fill="white"/>
<path d="M182.528 294.525C181.228 299.325 178.778 303.15 175.178 306C171.628 308.8 167.378 310.2 162.428 310.2C156.528 310.2 151.578 308.225 147.578 304.275C143.628 300.275 141.653 295.35 141.653 289.5C141.653 283.5 143.578 278.55 147.428 274.65C151.328 270.75 156.253 268.8 162.203 268.8C167.353 268.8 171.728 270.175 175.328 272.925C178.928 275.625 181.278 279.475 182.378 284.475H171.578C170.478 282.325 169.203 280.825 167.753 279.975C166.353 279.075 164.428 278.625 161.978 278.625C159.078 278.625 156.753 279.7 155.003 281.85C153.253 283.95 152.378 286.5 152.378 289.5C152.378 292.55 153.303 295.125 155.153 297.225C157.003 299.275 159.428 300.3 162.428 300.3C167.028 300.3 170.078 298.375 171.578 294.525H182.528Z" fill="white"/>
<g clip-path="url(#clip0_2_16)">
<path d="M256.792 272.547L246.279 256.08L247.292 253.164L269.959 248.315C270.957 248.1 271.494 248.56 270.911 249.635L258.541 272.47C258.004 273.453 257.268 273.299 256.792 272.547Z" fill="#FBB900"/>
<path d="M257.421 262.265V248.545C257.421 247.44 257.068 246.703 255.917 246.581L240.54 245.015C239.373 244.893 239.067 245.706 239.174 246.673L240.923 263.109C241.016 263.984 241.43 264.613 242.566 264.567L256.025 263.907C257.083 263.846 257.421 263.37 257.421 262.265Z" fill="#B70E80"/>
<path d="M235.982 320.551C239.143 320.551 241.706 323.114 241.706 326.276C241.706 329.437 239.143 332 235.982 332C232.82 332 230.258 329.437 230.258 326.276C230.258 323.114 232.82 320.551 235.982 320.551ZM221.97 319.83C230.948 317.068 240.402 314.075 249.379 311.313C250.607 310.898 251.129 310.423 251.114 308.274L251.651 285.914L261.734 280.696C264.327 279.346 262.47 276.23 260.153 277.397L250.101 282.461C248.904 283.06 248.014 284.456 247.952 285.791L247.783 289.198L212.056 292.191C210.184 292.344 209.693 294.063 210.2 295.444L218.548 318.096C218.901 319.078 220.144 320.398 221.97 319.83ZM253.4 312.187C255.042 312.187 256.393 313.523 256.393 315.18C256.393 316.822 255.058 318.173 253.4 318.173C251.758 318.173 250.408 316.838 250.408 315.18C250.408 313.538 251.758 312.187 253.4 312.187Z" fill="#51AE32"/>
<path d="M227.464 269.969L224.917 280.865L213.192 286.298C212.287 286.712 212.317 287.541 213.054 287.955L222.262 293.05L220.206 308.381C220.098 309.149 220.743 309.625 221.556 308.796L233.618 296.38L246.065 298.774C247.584 299.066 247.476 298.038 247.185 297.455L241.369 285.715L250.454 271.396C251.052 270.445 250.53 269.892 249.656 270.23L234.723 276.246L228.846 269.509C228.078 268.634 227.618 269.34 227.464 269.969Z" fill="#0069B4"/>
<path d="M283.265 245.399L281.285 246.519L278.523 246.028C277.832 245.905 277.755 246.105 277.878 246.596L278.338 248.514L276.021 250.555C275.637 250.893 275.745 251.338 276.359 251.307L279.919 251.123L281.761 253.088C282.098 253.441 282.405 253.287 282.574 252.919L283.648 250.387L287.562 249.19C288.176 249.005 288.114 248.591 287.685 248.453L284.14 247.333L284.186 245.844C284.232 244.923 283.741 245.138 283.265 245.399Z" fill="#51AE32"/>
<path fill-rule="evenodd" clip-rule="evenodd" d="M219.576 291.562L222.262 293.05L220.206 308.382C220.098 309.149 220.743 309.625 221.556 308.796L233.618 296.38L246.065 298.775C247.584 299.066 247.476 298.038 247.185 297.455L243.287 289.597L219.576 291.562Z" fill="#008237"/>
<path fill-rule="evenodd" clip-rule="evenodd" d="M257.421 262.265V251.077C253.692 251.86 249.978 252.643 246.249 253.425C245.374 253.548 245.343 254.638 245.65 255.175L251.375 264.137L256.009 263.907C257.083 263.846 257.421 263.37 257.421 262.265Z" fill="#702383"/>
<path fill-rule="evenodd" clip-rule="evenodd" d="M359.983 294.493L364.402 274.496C361.824 273.852 357.696 273.207 354.043 273.207C348.473 273.207 344.375 274.604 341.26 278.133C336.011 284.103 334.446 292.943 331.791 297.363C330.594 299.358 324.563 300.386 322.721 299.68C322.706 299.741 323.166 297.102 323.642 295.26L324.639 291.408C325.207 288.907 325.775 286.19 325.775 283.842C325.775 274.987 318.347 273.207 312.347 273.207C307.927 273.207 303.354 274.281 299.563 275.847L300.852 282.63C304.136 281.279 307.42 280.42 310.413 280.42C314.833 280.42 316.122 282.139 316.122 284.702C316.122 284.993 316.045 285.623 315.984 286.129L312.776 286.206C306.561 286.206 300.99 287.418 297.491 290.564C295.204 292.636 293.839 295.414 293.839 299.342C293.839 304.775 297.491 308.566 303.354 308.566C307.497 308.566 311.349 306.202 313.774 302.841C314.311 307.077 317.841 308.719 321.969 308.612C327.463 308.458 336.917 306.724 339.909 300.355C342.518 294.8 344.528 288.416 347.598 283.934C348.749 282.246 350.376 281.218 352.386 281.218C352.678 281.218 353.107 281.218 353.383 281.295L350.314 294.999C349.301 299.511 349.639 305.312 352.217 309.425L361.026 306.172C358.709 302.32 359.185 298.115 359.983 294.493ZM314.817 293.787C313.743 298.283 309.676 301.077 306.315 301.077C304.244 301.077 302.955 300.156 302.955 297.93C302.955 296.718 303.384 295.644 304.244 294.784C305.748 293.28 308.602 292.498 313.175 292.498H315.109L314.817 293.787Z" fill="white"/>
<path d="M441.489 294.493L445.908 274.067H436.839L427.554 284.993C426.418 286.282 424.484 288.492 423.272 290.349H423.134C421.277 284.855 419.067 279.208 416.642 274.067H409.215C407.573 282.845 405.654 292.283 403.291 296.565C402.048 298.805 395.817 301 393.484 300.156C393.653 298.682 394.067 296.872 394.482 295.26L395.479 291.408C396.047 288.907 396.615 286.19 396.615 283.842C396.615 274.987 389.187 273.207 383.187 273.207C378.767 273.207 374.194 274.281 370.403 275.847L371.692 282.63C374.976 281.279 378.26 280.42 381.253 280.42C385.673 280.42 386.962 282.139 386.962 284.702C386.962 284.993 386.885 285.623 386.824 286.129L383.616 286.206C377.401 286.206 371.83 287.418 368.331 290.564C366.045 292.636 364.679 295.414 364.679 299.342C364.679 304.775 368.331 308.566 374.194 308.566C378.337 308.566 382.189 306.202 384.614 302.841C385.642 310.407 400.053 309.517 405.869 305.696C409.982 302.98 411.455 299.496 412.944 294.738C413.512 292.943 414.049 291.025 414.494 288.769H414.632C416.274 292.697 417.916 297.409 419.052 300.908H423.042L429.181 293.695C430.255 292.406 432.112 290.273 433.109 288.983H433.324C431.651 295.199 429.15 302.949 433.094 309.333L442.302 305.911C440.783 302.642 440.399 299.527 441.489 294.493ZM385.627 293.787C384.553 298.283 380.486 301.077 377.125 301.077C375.053 301.077 373.764 300.156 373.764 297.931C373.764 296.718 374.194 295.644 375.053 294.784C376.557 293.28 379.411 292.498 383.969 292.498H385.903L385.627 293.787Z" fill="white"/>
<path d="M510.073 273.483C504.993 272.394 500.604 273.836 496.537 279.499C496.736 276.721 495.769 274.159 494.787 272.639L486.73 275.739C487.59 277.627 488.111 280.144 487.651 282.292L483.953 299.388C481.896 300.57 475.512 301.184 474.714 300.248C475.082 297.762 476.08 294.217 476.801 291.439C477.369 288.937 477.937 286.221 477.937 283.873C477.937 275.018 470.509 273.238 464.508 273.238C460.088 273.238 455.515 274.312 451.725 275.877L453.014 282.661C456.298 281.31 459.582 280.451 462.575 280.451C466.994 280.451 468.284 282.169 468.284 284.732C468.284 285.024 468.207 285.653 468.145 286.16L464.938 286.236C458.723 286.236 453.152 287.449 449.653 290.595C447.366 292.667 446 295.444 446 299.373C446 304.806 449.653 308.596 455.515 308.596C459.659 308.596 463.511 306.233 465.936 302.872C465.813 304.929 472.98 310.96 482.203 307.399L478.443 324.802H488.019L491.81 307.445C494.02 308.243 496.23 308.596 498.593 308.596C509.658 308.596 517.562 300.217 518.007 287.955C518.268 281.494 516.119 274.772 510.073 273.483ZM466.964 293.787C465.89 298.283 461.823 301.077 458.462 301.077C456.39 301.077 455.101 300.156 455.101 297.93C455.101 296.718 455.531 295.644 456.39 294.784C457.894 293.28 460.748 292.498 465.306 292.498H467.24L466.964 293.787ZM508.384 288.861C508.108 295.214 504.318 300.708 497.826 300.708C496.614 300.708 495.048 300.493 493.544 299.849L494.864 292.452C496.782 281.893 508.937 276.368 508.384 288.861Z" fill="white"/>
<path d="M519.296 307.844H528.872L531.727 295.137C532.647 290.718 534.09 287.786 535.655 285.715C538.157 282.507 540.72 281.571 542.3 281.571C543.943 281.571 544.802 282.492 544.802 284.287C544.802 285.009 544.664 286.359 544.295 287.786L539.876 307.844H549.437L552.291 295.137C553.289 290.641 554.716 287.71 556.297 285.638C558.798 282.492 561.361 281.571 562.942 281.571C564.522 281.571 565.366 282.492 565.366 284.349C565.366 284.993 565.182 286.344 564.86 287.771L561.975 300.846C561.054 304.99 561.791 308.197 562.911 310.238L571.981 306.908C571.075 305.021 571.106 302.857 571.674 300.263L574.298 288.124C574.82 285.684 575.464 282.768 575.434 280.558C575.388 275.709 572.226 273.207 567.438 273.207C562.082 273.207 557.233 276.998 554.44 280.696H554.301C554.225 275.77 551.524 273.207 546.736 273.207C541.518 273.207 536.806 276.844 534.105 280.558H533.967C534.412 277.704 533.875 274.573 532.985 272.639L524.498 275.755C525.281 277.059 525.342 280.466 524.989 282.093L519.296 307.844Z" fill="white"/>
<path d="M290.186 259.134C286.902 259.134 277.448 259.088 275.146 269.063L266.552 307.86H277.709L285.26 273.084C285.828 270.66 286.687 268.281 290.677 268.45H306.407L308.188 259.134H290.186V259.134Z" fill="white"/>
</g>
<path d="M724.9 190.7L723.2 188.7C723.4 187 723.7 185.2 723.9 183.4L724.5 178C724.6 176 724.9 172.8 725 170.8L725.1 167.2L725.2 164.4C725.2 163.2 725.1 162 725.2 160.8C725.2 159.6 725.1 157.2 725.1 155.9C724.7 148.5 724.1 141 722.7 133.5C722.1 129.7 721.2 126 720.4 122.2C719.9 120.3 719.4 118.5 718.9 116.6L718.1 113.8C717.7 112.4 717.2 111.1 716.8 109.7C716.3 108.3 715.6 106.1 715.1 104.8C714.2 102.5 713.3 100.2 712.4 97.9C712.3 97.7 712.2 97.5 712.1 97.2L710.9 94.5C710.1 92.7 709.3 90.9 708.4 89.1C706.6 85.6 704.8 82 702.7 78.7C701.1 75.8999 699.3 73.2999 697.5 70.6C696.3 68.7999 695.1 67.1 693.8 65.4L692.1 63.2C691.1 61.9 690 60.6 688.9 59.3L685 54.8C683.6 53.3 682.3 52 680.9 50.6C675.2 45 669.3 40 663 35.3C650.5 26 637.1 18.6 623.4 12.8C616.6 9.99996 609.7 7.59996 602.9 5.69996C596 3.89996 589.2 2.39996 582.5 1.49996C569.1 -0.400043 556.2 -0.300043 544.5 1.19996C532.8 2.69996 522.3 5.69996 513.5 9.29996C512.4 9.69996 511.3 10.2 510.2 10.6C509.1 11.1 508.1 11.5 507.1 12C506.1 12.5 505.1 12.9 504.1 13.4C503.1 13.9 502.2 14.4 501.3 14.9C499.5 15.9 497.7 16.7 496.1 17.7C494.5 18.7 492.9 19.6 491.5 20.5C490.8 20.9 490.1 21.4 489.4 21.8C488.7 22.2 488.1 22.7 487.4 23.1C486.1 24 485 24.8 483.9 25.5C481.9 26.8 480.4 28 479 29.1C479 29.1 478.9 29.1 478.9 29.2L478.8 29.3C478.7 29.4 478.6 29.5 478.5 29.5C478.2 29.7 478 29.9 477.7 30.1C477.5 30 477.3 30 477.2 30.1C477.1 30.3 477.1 30.5 477.2 30.6C477.4 30.7 477.6 30.7 477.7 30.6C477.8 30.5 477.8 30.3 477.7 30.2C478 30 478.2 29.8 478.5 29.6C478.6 29.6 478.6 29.5 478.7 29.5C478.6 30.1 479 31.2 479.8 32.2C480.8 33.5 482 34.2 482.5 33.9C483 33.5 482.6 32.1 481.6 30.8C480.8 29.7 479.8 29.1 479.2 29.1C480.5 28.1 482.1 26.9 484 25.7C485.1 25 486.3 24.2 487.6 23.3C488.2 22.9 488.9 22.4 489.6 22C490.3 21.6 491 21.2 491.8 20.8C493.3 19.9 494.8 19 496.5 18.1C498.1 17.2 499.9 16.4 501.8 15.4C502.7 14.9 503.7 14.5 504.6 14C505.6 13.5 506.6 13.1 507.6 12.7C508.6 12.3 509.7 11.8 510.7 11.4C511.8 10.9 512.8 10.5 514 10.1C518 8.59996 522.4 7.19996 527.1 5.99996C526.7 6.79996 526.6 8.19996 527 9.89996C527.5 12.1 528.6 13.8 529.4 13.6C530.3 13.4 530.6 11.4 530.1 9.19996C529.7 7.49996 529.1 6.19996 528.4 5.69996C533.6 4.39996 539.1 3.39996 545 2.69996C556.6 1.39996 569.3 1.49996 582.5 3.59996C586.3 4.19996 590.1 4.99996 593.9 5.89996C593 6.49996 592.1 8.19996 591.6 10.4C590.9 13.2 591.3 15.8 592.4 16C593.5 16.3 594.9 14.2 595.6 11.3C596.1 9.19996 596 7.19996 595.5 6.29996C597.8 6.89996 600.2 7.49996 602.6 8.19996C609.3 10.2 616 12.7 622.7 15.6C635.1 21.1 647.4 28.1 658.8 36.6C657.3 36.9 655.2 38.4 653.4 40.7C650.9 43.8 649.9 47.1 651.1 48.1C652.3 49.1 655.3 47.3 657.7 44.2C659.3 42.2 660.3 40.1 660.5 38.6C660.8 38.5 660.8 38.5 661.1 38.4C667.2 43.1 673 48.2 678.4 53.6C679.7 55 681.1 56.5 682.4 57.8L686.1 62.2C687.2 63.5 688.2 64.7999 689.2 66.1L690.8 68.3C692 70 693.2 71.6 694.3 73.4C696 76 697.7 78.6 699.1 81.3C701.1 84.6 702.7 88.1 704.4 91.5C705.2 93.2 705.9 95 706.7 96.8L707.8 99.4C708.3 100.5 708.6 101.7 709.1 102.8C709.6 104.2 710.2 105.6 710.7 107.1C710.8 107.4 710.9 107.6 710.9 107.9C709.6 106.9 706.1 107.1 702.5 108.4C698.2 110 695.2 112.7 695.8 114.3C696.4 116 700.4 116 704.7 114.4C708.2 113.1 710.9 111.1 711.4 109.5C711.8 110.6 712.1 111.8 712.5 112.9C712.8 113.8 713.1 114.7 713.3 115.6L714 118.3C714.5 120.1 715 121.9 715.4 123.8C716.1 127.5 717 131.1 717.5 134.8C718.7 141.9 719.2 149 719.4 155.9V163.5C719.4 163.9 719.4 164.3 719.4 164.7L719.3 167.3C719.2 169 719.1 170.8 719 172.5C718.8 174.3 718.6 176 718.5 177.8L718.2 180.4V180.7C718.2 180.6 718.2 180.8 718.2 180.8V181L718.1 181.6L717.9 182.9C717.6 184.6 717.4 186.3 717.1 187.9L715.2 189.3L722 191.4L714.7 190.3C714.7 190.3 710.6 196.2 710.4 196.8C710.2 197.8 712.8 198.9 712.5 199.9C711.7 203.4 711.1 205.1 710.2 207.8C709.7 209.2 707.9 214.3 707.7 215C705.6 220.6 703.2 226.1 700.5 231.4C695.9 240.6 690.3 249.3 684 257.5C682 260.2 679.8 262.7 677.8 265.1C677.8 265.1 663.8 275.5 660.6 277.6C660 278 659.1 280.9 659.5 281.5L662.4 286.7L659.3 283.2L654.2 289.1C653.7 289.6 653.7 290.4 654.2 291L658.1 296C658.6 296.6 659.4 296.8 660 296.4L667.2 292.5L669.5 292.9C670.1 293 673.4 292.8 673.8 292.3L661.9 279.2L674.5 291.4C677.7 287 686.2 273.9 686.2 273.9C688.6 271.1 691.1 268.1 693.5 264.8C700.1 255.9 705.9 246.4 710.7 236.5C716.4 224.8 720 215.5 722.8 202.8C723.1 201.7 725.9 201.7 726.1 200.6C725.8 199.8 724.9 190.7 724.9 190.7ZM481 30.9C481.7 31.8 482 32.8 481.7 33.1C481.3 33.4 480.4 32.8 479.7 31.9C479 31 478.7 30 479 29.7C479.4 29.5 480.3 30 481 30.9ZM529.1 9.19996C529.4 10.8 529.2 12.3 528.6 12.4C528 12.5 527.2 11.3 526.8 9.69996C526.5 8.09996 526.7 6.59996 527.3 6.49996C528 6.29996 528.8 7.49996 529.1 9.19996ZM594.3 11C593.8 13.1 592.8 14.6 592 14.4C591.2 14.2 590.9 12.4 591.4 10.3C591.9 8.19996 592.9 6.69996 593.7 6.89996C594.6 7.09996 594.8 8.89996 594.3 11ZM656.3 43.2C654.5 45.5 652.3 46.8 651.5 46.1C650.6 45.4 651.4 43 653.2 40.7C655 38.4 657.2 37.1 658 37.8C658.9 38.6 658.1 41 656.3 43.2ZM703.8 112.8C700.7 114 697.7 113.9 697.3 112.7C696.8 111.5 699 109.6 702.2 108.4C705.3 107.2 708.3 107.3 708.7 108.5C709.1 109.7 707 111.7 703.8 112.8Z" fill="white"/>
<path opacity="0.5" d="M647.2 37.0999C638.5 30.0999 629.1 24 619.2 19.1C614.3 16.6 609.2 14.5999 604.2 12.7C599.1 10.9 594 9.39995 588.9 8.29995C578.7 5.99995 568.5 5.19995 558.9 5.29995C549.3 5.49995 540.3 6.79995 532.2 8.69995C524 10.5 516.8 13 510.5 15.6C507.3 16.8 504.5 18.2 501.8 19.4C499.2 20.7 496.8 21.9 494.6 23C490.3 25.2999 487 27.2 484.8 28.6C482.6 30 481.4 30.7 481.4 30.7C481.4 30.7 482.6 30 484.8 28.7C487 27.3 490.4 25.5999 494.7 23.2999C496.9 22.2999 499.3 21.0999 502 19.9C504.7 18.7999 507.6 17.4999 510.7 16.2999C517 13.9 524.3 11.5999 532.4 9.89995C540.5 8.19995 549.4 6.99995 558.9 6.89995C568.4 6.89995 578.4 7.79995 588.4 10.1C593.4 11.2 598.5 12.7 603.5 14.5C608.5 16.4 613.5 18.4 618.3 20.9C628 25.7999 637.3 31.7999 645.8 38.7999C654.4 45.7 662.2 53.6 669.1 62C676 70.3999 682 79.3 686.9 88.4C691.9 97.5 695.8 106.7 698.7 115.7C700.2 120.2 701.3 124.7 702.3 129C703.2 133.4 703.9 137.6 704.3 141.7C705.2 149.9 705 157.6 704.3 164.2C703.5 170.9 702 176.6 700.4 181.2C699.7 183.5 698.7 185.5 698 187.2C697.2 188.9 696.5 190.3 695.8 191.5C694.5 193.7 693.8 194.9 693.8 194.9C693.8 194.9 694.5 193.7 695.9 191.5C696.5 190.4 697.3 188.9 698.2 187.3C699 185.6 699.9 183.6 700.7 181.3C702.4 176.8 704.1 171 705 164.3C706 157.6 706.3 149.9 705.5 141.5C705.2 137.3 704.5 133 703.6 128.6C702.7 124.2 701.6 119.7 700.1 115.1C697.3 106 693.4 96.5 688.4 87.4C683.4 78.2 677.4 69.2 670.5 60.7C663.7 52.1 655.8 44.0999 647.2 37.0999Z" fill="white"/>
<path d="M717.513 222.536C718.945 218.708 717.255 214.538 713.737 213.221C710.22 211.905 706.207 213.941 704.775 217.769C703.342 221.597 705.033 225.767 708.55 227.083C712.067 228.399 716.08 226.363 717.513 222.536Z" fill="white"/>
<path d="M702.6 239.3C706 240.9 710.1 239.2 711.9 235.5C713.6 231.8 712.3 227.5 708.9 226C705.5 224.4 701.4 226.1 699.6 229.8C697.9 233.4 699.2 237.7 702.6 239.3Z" fill="white"/>
<path d="M695.9 250.9C699.1 252.8 703.4 251.5 705.5 248C707.6 244.5 706.6 240.1 703.4 238.2C700.2 236.3 695.9 237.6 693.8 241.1C691.8 244.7 692.7 249.1 695.9 250.9Z" fill="white"/>
<path d="M697.754 259.664C700.09 256.311 699.486 251.852 696.405 249.705C693.324 247.558 688.932 248.535 686.595 251.889C684.259 255.242 684.862 259.701 687.944 261.848C691.025 263.995 695.417 263.017 697.754 259.664Z" fill="white"/>
<path d="M718.6 103.7L719.8 107.1C719.9 107.4 719.7 107.7 719.4 107.8L712.6 108.3C712.1 108.3 711.9 107.7 712.3 107.4L717.9 103.6C718.1 103.3 718.5 103.4 718.6 103.7Z" fill="white"/>
<path d="M661.6 30.8L664.1 32.5C664.3 32.7 664.4 33 664.1 33.2L659.7 37C659.4 37.3 658.9 36.9 659 36.5L661 31C661.1 30.7 661.4 30.6 661.6 30.8Z" fill="white"/>
<path d="M594.3 1.29996L596.6 1.89996C596.8 1.99996 596.9 2.19996 596.8 2.39996L594.5 6.39996C594.3 6.69996 593.9 6.59996 593.9 6.19996V1.59996C593.8 1.39996 594.1 1.19996 594.3 1.29996Z" fill="white"/>
<path d="M525.3 2.19995L527.1 1.69995C527.3 1.69995 527.4 1.79995 527.4 1.89995V5.39995C527.4 5.69995 527.1 5.79995 526.9 5.49995L525.1 2.49995C525.1 2.39995 525.1 2.19995 525.3 2.19995Z" fill="white"/>
<path d="M477.2 28.1L478.1 27.4C478.2 27.3 478.3 27.4 478.3 27.5L479.1 29.5C479.2 29.6 479 29.8 478.9 29.7L477.2 28.4C477.1 28.2 477.1 28.1 477.2 28.1Z" fill="white"/>
<path d="M670.062 181.988L667.289 190.129L687.167 196.901L689.941 188.76L670.062 181.988Z" fill="white"/>
<path d="M670.7 181.2L689.8 187.7L687.7 183.9L674.6 179.5L670.7 181.2Z" fill="white"/>
<path d="M675.3 179.2L687.4 183.3C687.4 183.3 686.4 181.6 686.1 180.9C684.1 176.9 682.4 176.3 677.8 178.1C677.2 178.4 675.3 179.2 675.3 179.2Z" fill="white"/>
<path d="M703.3 208.7C700.5 208.5 697.7 209.1 695 209.9C693.7 210.3 692.3 210.8 691 211C689.6 211.2 688.1 211 687 210.3C685.1 209 684.6 206.4 685.2 204.3C685.5 203.3 686 202.3 686.7 201.4C687 201.4 690 202.7 690.7 202.5C691.3 202.3 694.1 199 694.5 198.3C694.9 197.7 695.1 196.9 695.1 196.2C695.1 195.8 695.1 195.5 695 195.1C695 195 694.9 194.8 694.8 194.6C694.7 194.4 694.7 194.3 694.6 194.2C694.3 193.6 693.9 193.2 693.6 192.8C693.3 192.4 692.9 192 692.7 191.7C692.2 191 691.9 190.3 691.9 189.8C691.9 189.5 691.9 189.3 691.9 189.2C691.9 189.1 692 189 692 189C692 189 692 189.1 691.9 189.2C691.9 189.3 691.8 189.5 691.7 189.8C691.6 190.3 691.7 191.1 692.1 192C692.3 192.4 692.5 192.9 692.8 193.3C693 193.7 693.3 194.2 693.4 194.7C693.4 194.8 693.5 194.9 693.5 195C693.5 195.1 693.5 195.2 693.5 195.4C693.5 195.6 693.5 195.8 693.4 196.1C693.3 196.5 693.1 197 692.8 197.3C692.5 197.7 691.5 199.3 691 199.4C690.6 199.5 663.1 190.2 662.7 189.9C662.4 189.6 662.8 186.2 663 185.8C663.1 185.6 663.2 185.4 663.3 185.2C663.4 185.1 663.5 185 663.6 184.9C663.7 184.8 663.8 184.7 663.9 184.7C664.3 184.4 664.8 184.2 665.2 184C665.7 183.8 666.1 183.6 666.5 183.4C667.3 183 667.9 182.4 668.2 181.9C668.3 181.7 668.4 181.5 668.4 181.3C668.4 181.2 668.4 181.1 668.4 181.1C668.4 181.1 668.4 181.2 668.3 181.3C668.2 181.4 668.1 181.6 668 181.8C667.7 182.2 667 182.6 666.2 182.8C665.8 182.9 665.3 183 664.8 183.1C664.3 183.2 663.7 183.3 663.2 183.6C663.1 183.7 662.9 183.7 662.8 183.8C662.7 183.9 662.5 184 662.4 184.1C662.1 184.3 661.9 184.6 661.6 184.9C661.2 185.5 660.9 186.2 660.8 186.9C660.7 187.6 660.2 191.8 660.5 192.4C660.9 193 664.6 193.8 664.8 193.9C664.8 196.1 664 198.4 663.4 200.6C661.5 206.9 661.4 211.6 661.4 212.2C661 212.4 659.6 212.9 659.3 213.1C658.5 213.5 657.7 213.9 657 214.3C656.2 214.7 655.5 215.2 654.7 215.6C654 216 653.3 216.5 652.6 217C651.9 217.5 651.3 217.9 650.7 218.4C650.4 218.7 650.1 218.9 649.8 219.2L649.6 218.4C649.4 217.5 648.5 217 647.6 217.2C646.7 217.4 646.2 218.3 646.4 219.2L648.4 227.2C648.6 228.1 649.5 228.6 650.4 228.4C651.3 228.2 651.8 227.3 651.6 226.4L650.1 220.4C650.6 220.2 651.1 220 651.6 219.7C652.2 219.4 653 219.2 653.7 218.9C654.4 218.7 655.2 218.4 655.9 218.2C656.7 218 657.5 217.8 658.2 217.6C659 217.4 659.8 217.3 660.6 217.1C660.9 217 661.2 217 661.5 217C661.9 219.5 662.2 229.7 665.4 230.8C669.3 232.2 675.4 224.1 679.4 222.2C683.4 220.3 692.5 215.9 696.6 214.4C708.2 210.1 710.7 214.5 712.8 214C712.7 213.7 713.6 213.2 713.9 211.7C714 211.6 709.3 209 703.3 208.7ZM680.3 215.1C678.9 219.2 674.5 221.3 670.4 220C668.6 219.4 667.1 218.1 666.2 216.6C666.4 216.6 666.7 216.6 666.9 216.6C667.2 216.6 667.5 216.6 667.7 216.6C668 216.6 668.2 216.6 668.4 216.6C668.6 216.6 668.8 216.6 669 216.6C669.1 216.6 669.3 216.6 669.4 216.6C669.9 217 670.4 217.3 671.1 217.6C673.8 218.5 676.7 217.1 677.6 214.4C678.5 211.7 677.1 208.8 674.4 207.9C672.2 207.1 669.8 208 668.6 209.9C668.4 210 668.1 210 667.8 210.1C667.5 210.2 667.2 210.2 666.9 210.3C666.6 210.4 666.3 210.5 666 210.6C665.8 210.6 665.6 210.7 665.4 210.8C665.5 210.6 665.5 210.4 665.5 210.2C666.9 206.1 671.3 204 675.4 205.3C679.6 206.6 681.7 211 680.3 215.1ZM672.3 209.1C671.9 209.1 671.6 209.2 671.2 209.3C671.7 209.1 672.1 209 672.7 209C674.7 209 676.4 210.7 676.4 212.7C676.4 214.7 674.7 216.4 672.7 216.4C672.2 216.4 671.7 216.3 671.2 216.1C671.5 216.2 671.9 216.3 672.3 216.3C674.3 216.3 675.9 214.7 675.9 212.7C675.9 210.7 674.3 209.1 672.3 209.1Z" fill="white"/>
<path d="M77.4 248.1L76.8 249.1C72.7 247.5 68.9 252.5 67.7 254.1C67.2 253.8 66.5 254 66.1 254.6C65.7 255.2 65.8 255.9 66.2 256.2C65.3 258.1 64.8 260.2 64.7 262.3C64.6 263.5 64.7 264.7 65 265.9C65.1 266.5 65.3 267.1 65.6 267.6C65.9 268.1 66.3 268.6 66.9 268.8C66.3 268.6 66 268 65.7 267.5C65.4 267 65.3 266.4 65.2 265.8C65 264.6 65 263.5 65.1 262.3C65.3 260.3 66 258.4 66.9 256.7L72.5 260.2C72.8 262.5 72.1 264.9 70.4 266.7C69.4 267.8 68.1 268.5 66.8 268.8C70.6 270 74.7 265 76.4 262.6H76.5C77 262.9 77.7 262.7 78.1 262.1C78.5 261.5 78.4 260.7 77.9 260.4C78.8 258.6 81.5 253.1 78.4 250.1L79.2 248.8L77.4 248.1ZM44 175.6C43.7 175.7 43.5 175.8 43.3 175.9C43 175.5 42.5 175.3 42 175.6C42 175.6 41.9 175.6 41.9 175.7C41.9 175.7 41.9 175.7 41.9 175.6C41.9 175.5 41.8 175.6 41.9 175.6C41.9 175.6 41.9 175.6 41.9 175.7C41.7 175.9 41.5 176.1 41.5 176.4C40.4 176.7 39.9 177.6 39.4 178.6C39 179.4 38.5 180.3 37.8 180.9C36.6 181.9 35.5 182.3 34.8 182.1C34.3 182 33.9 181.4 33.6 180.8C33.5 180.7 33.4 180.5 33.3 180.4C33 180 32.5 179.1 32.9 178.5C33 178.3 33.1 178.2 33.2 178.2C33.2 178.2 33.3 178.1 33.4 178.1C33.6 178 33.8 177.9 34 177.9C34.1 177.9 34.1 179 34.1 179C34.1 178.9 36.2 176 36.2 176L35.2 176.7C35 176.8 34.5 177.1 33.2 177.5C33 177.6 33 177.6 32.9 177.6C32.6 177.7 32.4 178 32.2 178.3C31.9 178.9 32 179.6 32.3 180.4C32.4 180.6 32.5 180.8 32.7 181C32.8 181.1 32.9 181.2 32.9 181.4C33.3 182 33.8 182.8 34.5 183C35.5 183.3 36.7 182.9 38.2 181.6C39.1 180.9 39.6 179.9 40 179.1C40.5 178.2 40.9 177.4 41.7 177.2C42 177.6 42.5 177.7 42.9 177.5C43.4 177.3 43.6 176.7 43.3 176.2C43.5 176.1 43.7 176 44 175.9V175.6ZM79.7 248.2L80.9 246.3C80.9 246.3 81.6 244.9 80.9 244.4C80.2 244 79.2 245.1 79.2 245.1L77.8 247.3L79.7 248.2ZM42.7 177C42.5 177.1 42.2 177 42 176.8C41.9 176.6 42 176.3 42.2 176.1C42.4 176 42.7 176.1 42.8 176.2C42.8 176.2 42.8 176.2 42.9 176.3C43 176.5 42.9 176.8 42.7 177ZM65 268.2L62 272.9L63.7 274L66.7 269.2C66.4 269.1 66 268.9 65.7 268.7C65.5 268.6 65.2 268.4 65 268.2ZM49.6 292.8C49.6 292.8 49.1 293.8 49.9 294.3C50.6 294.7 51.3 293.9 51.3 293.9L54.2 289.2L52.5 288.1L49.6 292.8ZM63.1 273.6L60 278.6L58.9 277.9L55.8 282.8L56.9 283.5L53.7 288.7L54.3 289.1L57.5 283.9L60.6 279L63.7 274L63.1 273.6Z" fill="white"/>
<path opacity="0.4" d="M605.3 85.6C605 84.6 604.6 83.6 604.3 82.7C603.9 81.7 603.4 80.8 602.9 79.9C601.8 78.1 600.4 76.5 598.8 75.2C595.7 72.5 591.9 70.5 587.9 69.4C585.9 68.8 583.9 68.5 581.9 68.2C579.9 68 577.8 67.9 575.8 68C571.7 68.1 567.7 68.8 563.8 69.8C559.9 70.8 556.1 72 552.3 73.6C550.4 74.3 548.6 75.2 546.8 76C545 76.8 543.1 77.5 541.1 78C533.4 80.2 525.3 80.8 517.2 80.6C509.2 80.3 501.2 79.2 493.4 77.2C489.5 76.2 485.7 74.9 482 73.4C478.3 71.8 474.7 70 471.5 67.7C468.3 65.4 465.3 62.5 463.6 58.9C462.8 57.1 462.3 55.1 462.4 53.1C462.5 51.1 463 49.2 463.8 47.4C465.5 43.8 468.3 40.8 471.3 38.2C474.3 35.6 477.7 33.3 481.1 31.3L480.8 30.9C477.4 33 474 35.3 471 37.9C468 40.6 465.2 43.6 463.5 47.3C462.6 49.1 462.1 51.1 462.1 53.2C462.1 55.2 462.5 57.3 463.4 59.1C465.1 62.8 468.1 65.7 471.4 68C474.7 70.3 478.3 72.2 482 73.7C485.7 75.2 489.6 76.5 493.4 77.5C501.2 79.5 509.2 80.6 517.3 80.9C525.3 81.1 533.4 80.5 541.2 78.3C543.1 77.7 545 77.1 546.9 76.3C548.7 75.5 550.6 74.7 552.5 74C556.2 72.5 560.1 71.3 564 70.4C567.9 69.6 571.9 69.1 575.9 69.1C577.9 69.1 579.9 69.2 581.8 69.5C583.8 69.8 585.7 70.2 587.6 70.8C591.3 72 594.9 73.9 597.8 76.5C599.2 77.8 600.5 79.3 601.5 80.9C602 81.7 602.4 82.5 602.8 83.5C603.2 84.4 603.5 85.3 603.8 86.3C605 90 605.4 94 604.7 97.8C604.1 101.6 602.2 105.2 599.8 108.2C597.4 111.3 594.3 113.9 591.1 116.1C587.9 118.4 584.4 120.3 580.8 122.1C573.6 125.6 566.1 128.2 558.4 130.6C550.7 132.9 542.9 134.8 535.1 136.5C519.4 139.9 503.5 142.3 487.6 144.5C471.7 146.6 455.7 148.4 439.7 149.9C407.7 153.1 375.7 155.5 343.7 158.8C335.7 159.6 327.7 160.6 319.7 161.1C311.7 161.6 303.7 161.9 295.7 161.3C292.9 161.1 290.1 160.7 287.4 160.1C288.3 159.8 289.2 159.6 290.1 159.2C292 158.4 293.9 157.5 295.3 155.8C296 154.9 296.4 153.8 296.4 152.7C296.4 151.6 296.1 150.5 295.6 149.6C295.1 148.6 294.4 147.8 293.5 147.2C292.6 146.6 291.5 146.3 290.5 146.1C288.4 145.8 286.3 146.2 284.3 146.9C282.4 147.7 280.6 148.8 279.2 150.4C278.5 151.2 278 152.2 277.8 153.3C277.6 154.4 277.9 155.6 278.6 156.5C279.2 157.4 280.1 158.1 281 158.6C281.9 159.1 282.8 159.6 283.7 159.9C279.9 160.6 276.1 161 272.3 161.3C264.3 161.8 256.3 161.8 248.2 161.5C240.2 161.2 232.2 160.7 224.2 159.9C220.2 159.5 216.2 159 212.2 158.5C208.2 158 204.2 157.6 200.2 157.2C192.2 156.5 184.1 156.2 176.1 156.5C168.1 156.8 160 157.8 152.3 160.1C148.4 161.3 144.7 162.8 141.2 165C137.8 167.1 134.6 169.8 132.2 173C129.7 176.2 127.9 179.9 126.6 183.7C125.2 187.5 124.4 191.4 123.3 195.3C122.3 198.9 120.5 202.3 118.1 205.1C117.5 203.6 116.7 202.1 115.9 200.7C115.4 199.8 114.9 199 114.2 198.1L113.3 196.9L112.3 195.7C111.7 194.9 110.9 194.2 110.2 193.4C109.5 192.7 108.7 192 107.9 191.3C104.7 188.7 100.9 186.6 96.8 185.7C95.8 185.5 94.7 185.3 93.7 185.3C93.2 185.3 92.6 185.3 92.1 185.3C91.6 185.3 91 185.3 90.5 185.4C88.4 185.7 86.3 186.4 84.4 187.4C82.5 188.5 80.9 189.9 79.6 191.7C79 192.6 78.4 193.6 78.1 194.6C77.7 195.6 77.5 196.7 77.4 197.8C77.1 202.2 79 206.5 82.1 209.5C85.3 212.5 89.4 214.3 93.7 214.9C102.3 216.1 111.3 212.8 117.3 206.5C117.4 206.4 117.5 206.3 117.5 206.2C118.2 208.1 118.8 210.1 119.2 212C120 215.8 120.1 219.7 119.6 223.5C119 227.3 117.7 230.9 115.9 234.1C114 237.3 111.6 240.2 108.8 242.5C103.3 247.2 96.2 249.9 89.4 249.9C86.1 249.9 82.9 249.2 79.9 248.1L78 247.3C75.5 246.2 73.3 244.7 71.3 243C67.6 239.9 64 234.1 63.1 231.9C62.3 229.7 61.9 228 61.9 227.8C61.3 225 61.2 222.1 61.3 219.4C61.4 216.6 61.8 214 62.3 211.4C63.2 206.3 64.1 201.4 64.3 196.9C64.5 192.4 63.9 188.1 62.3 184.6C60.8 181.1 58.3 178.6 55.8 177C53.3 175.5 50.8 174.8 48.8 174.7C46.8 174.6 45.2 175.1 44.3 175.5C44 175.6 43.8 175.7 43.6 175.8L43.7 175.9C43.9 175.8 44.1 175.7 44.4 175.6C45.4 175.2 46.9 174.8 48.9 174.9C50.9 175 53.3 175.7 55.8 177.2C58.2 178.8 60.7 181.2 62.1 184.7C63.6 188.1 64.1 192.3 63.9 196.8C63.7 201.3 62.8 206.1 61.9 211.3C61.5 213.9 61 216.6 60.9 219.4C60.7 222.2 60.8 225.1 61.4 228C61.4 228.2 62 230.5 62.7 232.2C63.4 233.9 67.2 240.5 71 243.7C73 245.4 75.3 246.9 77.8 248.1L79.7 248.9C80.4 249.2 81.2 249.4 81.9 249.7C82.7 250 83.6 250.1 84.4 250.3C85.2 250.5 86.1 250.6 87 250.7C87.9 250.8 88.7 250.8 89.6 250.9C96.7 251 103.9 248.2 109.6 243.3C112.4 240.9 115 238 116.9 234.7C118.8 231.4 120.1 227.7 120.7 223.8C121.3 219.9 121.1 215.9 120.3 212C119.8 209.8 119.2 207.7 118.4 205.6C120.9 202.6 122.8 199.1 123.8 195.4C124.9 191.5 125.7 187.6 127.1 183.8C128.4 180 130.2 176.4 132.7 173.3C135.1 170.1 138.2 167.5 141.6 165.4C145 163.3 148.7 161.8 152.6 160.6C160.3 158.3 168.3 157.4 176.3 157.1C184.3 156.8 192.4 157.2 200.4 157.9C204.4 158.3 208.4 158.7 212.4 159.2C216.4 159.7 220.4 160.3 224.4 160.7C232.4 161.5 240.4 162.1 248.5 162.4C256.5 162.7 264.6 162.8 272.6 162.3C276.6 162 280.6 161.6 284.6 160.8C284.9 160.7 285.3 160.7 285.6 160.6C289 161.6 292.5 162.1 295.9 162.4C312.1 163.6 328.2 161.6 344.1 160C376.1 156.8 408.2 154.5 440.2 151.3C456.2 149.7 472.2 148 488.2 145.9C504.1 143.8 520.1 141.3 535.8 138C543.7 136.3 551.5 134.4 559.2 132.1C566.9 129.8 574.6 127.1 581.9 123.6C585.5 121.8 589.1 119.9 592.5 117.5C595.8 115.2 599 112.5 601.6 109.2C604.2 106 606.1 102.1 606.8 98C607 93.8 606.5 89.5 605.3 85.6ZM116.8 206.2C110.9 212.3 102 215.5 93.7 214.3C89.6 213.7 85.5 212 82.5 209C79.5 206.1 77.8 201.9 78.1 197.8C78.2 196.8 78.4 195.8 78.7 194.8C79.1 193.8 79.5 193 80.1 192.1C81.3 190.4 82.9 189.1 84.6 188.1C86.4 187.1 88.3 186.5 90.4 186.2C90.9 186.1 91.4 186.1 91.9 186.1C92.4 186.1 92.9 186.1 93.4 186.1C94.4 186.2 95.4 186.3 96.4 186.5C100.4 187.4 104 189.4 107.1 191.9C110.2 194.5 112.8 197.6 114.8 201C115.7 202.5 116.5 204 117.1 205.6C117 205.9 116.9 206.1 116.8 206.2ZM279.2 155.8C278.7 155.1 278.5 154.2 278.6 153.3C278.8 152.4 279.2 151.6 279.8 150.9C281 149.5 282.7 148.4 284.5 147.7C286.3 147 288.3 146.6 290.2 146.9C291.1 147 292 147.3 292.8 147.8C293.6 148.3 294.2 149 294.6 149.8C295 150.6 295.3 151.6 295.3 152.5C295.3 153.4 295 154.3 294.4 155C293.3 156.5 291.4 157.4 289.6 158.1C288.3 158.6 286.9 159 285.4 159.4C284.9 159.2 284.3 159.1 283.8 158.9C282.1 158.3 280.2 157.3 279.2 155.8Z" fill="white"/>
<defs>
<clipPath id="clip0_2_16">
<rect width="365.418" height="87" fill="white" transform="translate(210 245)"/>
</clipPath>
</defs>
</svg>
